<svg width="43" height="41" viewBox="0 0 43 41" fill="none" xmlns="http://www.w3.org/2000/svg">
<path d="M7.96158 8.86248C5.64802 11.4426 1.77483 8.68356 1.62087 9.62337C1.46691 10.5632 1.97953 13.3378 4.91804 14.1887C7.18183 14.9149 8.17942 15.0164 9.73698 14.9496C11.2501 16.1524 11.8956 16.8436 11.0051 18.2467C10.978 18.3654 10.8293 18.2538 9.73698 19.2613C7.10538 21.9704 5.80307 23.6229 6.18618 28.6455C6.69344 32.1963 9.20941 34.959 11.5124 36.508C15.791 39.3858 20.6809 39.8052 22.1648 39.8052C24.4474 39.8052 28.2519 39.8052 31.8027 38.0298C35.3535 36.2544 36.368 35.2398 36.368 35.2398C40.4733 32.1634 41.9336 29.5333 41.9478 22.0512C41.962 14.569 41.9478 19.5149 41.9478 18.2467C41.9478 16.9786 41.4405 14.9496 40.9333 14.4423C40.426 13.9351 38.6506 15.9641 37.1288 16.725C35.6071 17.4859 32.5635 18.2467 31.2954 18.5004C30.0273 18.754 24.9547 18.754 24.1938 18.5004C23.4329 18.2467 22.672 17.7395 22.672 17.2322C22.672 16.725 23.1793 16.2177 23.6866 15.4568C24.1938 14.6959 24.7011 13.1742 24.7011 13.1742L25.2083 11.1451C25.4258 10.1316 25.4617 9.37908 25.4338 7.84797C25.1104 6.20881 24.6774 5.32851 23.6866 3.78991C22.0475 2.03333 20.9733 1.33016 17.3458 1C17.3458 1 13.5414 1.25363 11.5124 2.7754C9.48335 4.29717 8.59562 6.10475 7.96158 8.86248Z" fill="white" stroke="white" stroke-width="1.71806"/>
</svg>
