<?xml version="1.0" encoding="UTF-8"?>
<svg clip-rule="evenodd" fill-rule="evenodd" stroke-linejoin="round" stroke-miterlimit="2" version="1.1" viewBox="0 0 600 600" xml:space="preserve" xmlns="http://www.w3.org/2000/svg">
    <g transform="translate(-4391 -1935)">
        <g transform="translate(-.14287)">
            <rect x="4391.1" y="1935" width="600" height="600" fill="none"/>
            <g transform="matrix(1.2651 0 0 1.267 4290.6 1843.8)">
                <path d="m488.5 536.87-4e-3 3e-3 -347.46-119.43s-2.394-0.837-2.554-0.948c-3.093-1.904-5.175-5.295-5.245-9.174l-1e-3 -6e-3v-316.43c0-6.071 4.929-11 11-11h344.77c6.071 0 11 4.929 11 11v438.79c0 4.416-3.585 8-8 8-1.254 0-3.498-0.804-3.498-0.804z" fill="#fcc018"/>
            </g>
            <g transform="translate(670.14)">
                <path d="m4246 2534-454.74-156.53s-3.13-1.1-3.34-1.25c-4.05-2.49-6.78-6.94-6.87-12.02v-0.01-414.72c0-7.96 6.45-14.42 14.4-14.42h451.2c7.95 0 14.4 6.46 14.4 14.42v575.09c0 5.79-4.69 10.49-10.47 10.49-1.64 0-4.58-1.05-4.58-1.05zm-250.61-107.6s-7.41-23-8.46-44.57c-0.95-19.71 3.14-39.72 4.16-44.16 2.91-12.79 15.64-37.52 24.07-47.9 4.54-5.58 14.69-14.89 24.35-22.79 5.56-4.56 19.82-13.26 23.23-22.27 1.15-3.04-0.45-9.82-2.84-13.94-1.38-2.38-5.34-8.52-13.31-11.15-6.65-2.2-20.08-3.28-32.03-5.19-6.49-1.04-17.54-2.63-26.65-5.02-4.56-1.19-18.37-5-28.78-11.21-12.07-7.2-20.64-16.96-22.1-19.14-2.9-4.34-7.32-13.96-8.73-22.47-0.59-3.63-0.72-11.59 0.74-17.27 0.54-2.07 1.23-4.25 2.29-5.69 0.51-0.69 1.73-2.11 3.76-2.89 3.05-1.18 7.64-0.95 10.43-0.95 1.67 0 47.83 0.28 51.79 0.02 0.43-0.03 5.59-0.08 10.07-1.14 4.21-1 7.72-2.94 8.75-4.85 2.53-4.71 3.96-13.73 5.7-18.47 2.49-6.79 5.85-13.96 8.3-18.87 2.97-5.95 10.61-18.47 19.62-28.62 4.1-4.62 15.5-16.16 28.92-24.34 11.89-7.24 26.14-11.44 26.8-11.75 1.64-0.76 20.92-5.21 31.23-6.08 10.18-0.85 21.09-0.17 30.65 0.87 9.13 1 21.78 3.47 27.1 5.08 11.62 3.5 21.13 8.38 28.73 13.06 6.33 3.89 17.36 14.57 17.39 14.58 0.16 0.08 0.44-0.09 0.44-0.31v-0.5-80.24c0-7.28-5.91-13.2-13.19-13.2h-413.58c-7.28 0-13.19 5.92-13.19 13.2v381.89 0.01c0.08 4.65 2.58 8.72 6.29 11 0.28 0.2 2.6 1.33 2.6 1.33l185.45 63.94zm-156.96-370.06c-1.43-1.18-2.35-2.97-2.35-4.97 0-1.96 0.88-3.72 2.28-4.9 0.01-0.01 35.52-29.8 35.52-29.8 3.26-2.74 8.12-2.31 10.86 0.95 2.73 3.25 2.31 8.12-0.95 10.85l-27.29 22.9 27.29 22.91c3.26 2.73 3.68 7.6 0.95 10.86-2.74 3.25-7.6 3.68-10.86 0.94l-32.95-27.64-2.5-2.1zm102.24-53.45c1.88-3.48 6.49-4.63 10.27-2.58s5.32 6.54 3.43 10.02l-49.24 90.69c-1.88 3.48-6.49 4.63-10.27 2.58-3.78-2.06-5.32-6.55-3.43-10.02l49.24-90.69zm66.01 53.45-2.5 2.1-32.95 27.64c-3.26 2.74-8.12 2.31-10.86-0.94-2.73-3.26-2.31-8.13 0.95-10.87l27.3-22.9-27.3-22.9c-3.26-2.73-3.68-7.6-0.95-10.86 2.74-3.25 7.6-3.68 10.86-0.95 0 0 35.51 29.8 35.52 29.81 1.4 1.18 2.28 2.94 2.28 4.9 0 2-0.91 3.79-2.35 4.97zm12.1 378.12 208.44 71.85c1.27 0.62 2.69 0.97 4.2 0.97 5.29 0 9.59-4.3 9.59-9.6v-418.4-0.6c0-0.99-4.3-8.81-10.13-15.2-5.83-6.4-13.19-11.35-16.22-13.25-6.97-4.36-14.11-7.39-15.62-8.02-2.24-0.94-10.33-3.86-18.26-5.61-11-2.42-23.08-3.63-31.28-3.64-8.07-0.02-18.27 1.23-25.43 2.38-5.95 0.97-11.93 2.26-17.51 4.56-6.69 2.76-16.77 7.95-22.65 12.03-8.44 5.85-16.35 13.51-19.58 17.4-6.7 8.05-13.81 17.89-19.38 29.19-0.33 0.68-4.22 9.01-6.71 17.5-0.77 2.63-2.26 12.64-5.41 18.37-3.33 6.05-8.36 7.78-9.78 8.63-6.31 3.78-15.68 3.99-17.66 4.18-4.54 0.47-44.03 0.28-54.88 0.22-1.74-0.01-2.74-0.01-2.74-0.01-1.01 0-1.48 0.55-1.61 1.49 0 0-0.37 5.92 0.11 8.31 0.23 1.15 1.3 4.8 3.43 8.3 2.45 4.01 6.19 8.01 10.17 11.24 7.33 5.96 17.9 10.2 23.5 12.25 4.77 1.75 19.26 5.12 35.2 7.51 12.52 1.89 26.47 2.65 33.8 5.05 4.61 1.52 14.76 8.55 20.88 16.49 2.95 3.82 7.43 12.12 8.03 20.03 0.54 7.26-0.44 14.08-2.16 16.96-4.98 8.34-15.33 15.48-20.43 19.95-1.73 1.51-11.12 8.53-18.97 15.84-7.65 7.12-13.77 14.55-14.57 15.41-3.04 3.31-14.36 25.48-17.03 40.17-1.48 8.18-4.54 28.18-1.96 46.65 2.88 20.66 12.62 41.4 12.62 41.4z"/>
            </g>
        </g>
    </g>
</svg>
