<?xml version="1.0" encoding="UTF-8"?>
<svg clip-rule="evenodd" fill-rule="evenodd" version="1.1" viewBox="0 0 53 53" xml:space="preserve" xmlns="http://www.w3.org/2000/svg">
    <path d="m51.5 5c0-1.932-1.568-3.5-3.5-3.5h-43c-1.932 0-3.5 1.568-3.5 3.5v43c0 1.932 1.568 3.5 3.5 3.5h43c1.932 0 3.5-1.568 3.5-3.5v-43z" fill="#e8903f" stroke="#000" stroke-width="3px"/>
    <path d="m24.122 13.464-2.192 6.746h-7.094c-2.421 0-3.428 3.099-1.469 4.523l5.739 4.17-2.192 6.746c-0.749 2.304 1.888 4.219 3.847 2.795l5.739-4.169 5.739 4.169c1.959 1.424 4.596-0.491 3.847-2.795l-2.192-6.746 5.739-4.17c1.959-1.424 0.953-4.523-1.469-4.523h-7.094l-2.192-6.746c-0.749-2.304-4.007-2.304-4.756 0z" fill="#fff" fill-rule="nonzero" stroke="#000" stroke-width="3px"/>
</svg>
