<svg width="237" height="80" viewBox="0 0 237 80" fill="none" xmlns="http://www.w3.org/2000/svg">
    <mask id="path-1-outside-1_928_763" maskUnits="userSpaceOnUse" x="6.36401" y="12.0208" width="57.2756" height="57.2756" fill="black">
    <rect fill="white" x="6.36401" y="12.0208" width="57.2756" height="57.2756"/>
    <path d="M19.7255 49.4239L28.686 40.4635L19.7255 31.503L25.6991 25.5294L34.6596 34.4898L43.6201 25.5294L49.5937 31.503L40.6332 40.4635L49.5937 49.4239L43.6201 55.3976L34.6596 46.4371L25.6991 55.3976L19.7255 49.4239Z"/>
    </mask>
    <path d="M19.7255 49.4239L17.6042 47.3026L15.4829 49.4239L17.6042 51.5453L19.7255 49.4239ZM28.686 40.4635L30.8073 42.5848L32.9286 40.4635L30.8073 38.3422L28.686 40.4635ZM19.7255 31.503L17.6042 29.3817L15.4829 31.503L17.6042 33.6243L19.7255 31.503ZM25.6991 25.5294L27.8205 23.4081L25.6991 21.2867L23.5778 23.4081L25.6991 25.5294ZM34.6596 34.4898L32.5383 36.6112L34.6596 38.7325L36.7809 36.6112L34.6596 34.4898ZM43.6201 25.5294L45.7414 23.4081L43.6201 21.2867L41.4987 23.4081L43.6201 25.5294ZM49.5937 31.503L51.715 33.6243L53.8363 31.503L51.715 29.3817L49.5937 31.503ZM40.6332 40.4635L38.5119 38.3422L36.3906 40.4635L38.5119 42.5848L40.6332 40.4635ZM49.5937 49.4239L51.715 51.5453L53.8363 49.4239L51.715 47.3026L49.5937 49.4239ZM43.6201 55.3976L41.4987 57.5189L43.6201 59.6402L45.7414 57.5189L43.6201 55.3976ZM34.6596 46.4371L36.7809 44.3158L34.6596 42.1945L32.5383 44.3158L34.6596 46.4371ZM25.6991 55.3976L23.5778 57.5189L25.6991 59.6402L27.8205 57.5189L25.6991 55.3976ZM21.8468 51.5453L30.8073 42.5848L26.5646 38.3422L17.6042 47.3026L21.8468 51.5453ZM30.8073 38.3422L21.8468 29.3817L17.6042 33.6243L26.5646 42.5848L30.8073 38.3422ZM21.8468 33.6243L27.8205 27.6507L23.5778 23.4081L17.6042 29.3817L21.8468 33.6243ZM23.5778 27.6507L32.5383 36.6112L36.7809 32.3685L27.8205 23.4081L23.5778 27.6507ZM36.7809 36.6112L45.7414 27.6507L41.4987 23.4081L32.5383 32.3685L36.7809 36.6112ZM41.4987 27.6507L47.4724 33.6243L51.715 29.3817L45.7414 23.4081L41.4987 27.6507ZM47.4724 29.3817L38.5119 38.3422L42.7546 42.5848L51.715 33.6243L47.4724 29.3817ZM38.5119 42.5848L47.4724 51.5453L51.715 47.3026L42.7546 38.3422L38.5119 42.5848ZM47.4724 47.3026L41.4987 53.2763L45.7414 57.5189L51.715 51.5453L47.4724 47.3026ZM45.7414 53.2763L36.7809 44.3158L32.5383 48.5584L41.4987 57.5189L45.7414 53.2763ZM32.5383 44.3158L23.5778 53.2763L27.8205 57.5189L36.7809 48.5584L32.5383 44.3158ZM27.8205 53.2763L21.8468 47.3026L17.6042 51.5453L23.5778 57.5189L27.8205 53.2763Z" fill="white" mask="url(#path-1-outside-1_928_763)"/>
    <mask id="path-3-outside-2_928_763" maskUnits="userSpaceOnUse" x="107.364" y="12.0208" width="57.2756" height="57.2756" fill="black">
    <rect fill="white" x="107.364" y="12.0208" width="57.2756" height="57.2756"/>
    <path d="M120.725 49.4239L129.686 40.4635L120.726 31.503L126.699 25.5294L135.66 34.4898L144.62 25.5294L150.594 31.503L141.633 40.4635L150.594 49.4239L144.62 55.3976L135.66 46.4371L126.699 55.3976L120.725 49.4239Z"/>
    </mask>
    <path d="M120.725 49.4239L118.604 47.3026L116.483 49.4239L118.604 51.5453L120.725 49.4239ZM129.686 40.4635L131.807 42.5848L133.929 40.4635L131.807 38.3422L129.686 40.4635ZM120.726 31.503L118.604 29.3817L116.483 31.503L118.604 33.6243L120.726 31.503ZM126.699 25.5294L128.82 23.4081L126.699 21.2867L124.578 23.4081L126.699 25.5294ZM135.66 34.4898L133.538 36.6112L135.66 38.7325L137.781 36.6112L135.66 34.4898ZM144.62 25.5294L146.741 23.4081L144.62 21.2867L142.499 23.4081L144.62 25.5294ZM150.594 31.503L152.715 33.6243L154.836 31.503L152.715 29.3817L150.594 31.503ZM141.633 40.4635L139.512 38.3422L137.391 40.4635L139.512 42.5848L141.633 40.4635ZM150.594 49.4239L152.715 51.5453L154.836 49.4239L152.715 47.3026L150.594 49.4239ZM144.62 55.3976L142.499 57.5189L144.62 59.6402L146.741 57.5189L144.62 55.3976ZM135.66 46.4371L137.781 44.3158L135.66 42.1945L133.538 44.3158L135.66 46.4371ZM126.699 55.3976L124.578 57.5189L126.699 59.6402L128.82 57.5189L126.699 55.3976ZM122.847 51.5453L131.807 42.5848L127.565 38.3422L118.604 47.3026L122.847 51.5453ZM131.807 38.3422L122.847 29.3817L118.604 33.6243L127.565 42.5848L131.807 38.3422ZM122.847 33.6243L128.82 27.6507L124.578 23.4081L118.604 29.3817L122.847 33.6243ZM124.578 27.6507L133.538 36.6112L137.781 32.3685L128.82 23.4081L124.578 27.6507ZM137.781 36.6112L146.741 27.6507L142.499 23.4081L133.538 32.3685L137.781 36.6112ZM142.499 27.6507L148.472 33.6243L152.715 29.3817L146.741 23.4081L142.499 27.6507ZM148.472 29.3817L139.512 38.3422L143.755 42.5848L152.715 33.6243L148.472 29.3817ZM139.512 42.5848L148.472 51.5453L152.715 47.3026L143.755 38.3422L139.512 42.5848ZM148.472 47.3026L142.499 53.2763L146.741 57.5189L152.715 51.5453L148.472 47.3026ZM146.741 53.2763L137.781 44.3158L133.538 48.5584L142.499 57.5189L146.741 53.2763ZM133.538 44.3158L124.578 53.2763L128.82 57.5189L137.781 48.5584L133.538 44.3158ZM128.82 53.2763L122.847 47.3026L118.604 51.5453L124.578 57.5189L128.82 53.2763Z" fill="white" mask="url(#path-3-outside-2_928_763)"/>
    <mask id="path-5-outside-3_928_763" maskUnits="userSpaceOnUse" x="163.364" y="12.0208" width="57.2756" height="57.2756" fill="black">
    <rect fill="white" x="163.364" y="12.0208" width="57.2756" height="57.2756"/>
    <path d="M176.725 49.4239L185.686 40.4635L176.726 31.503L182.699 25.5294L191.66 34.4898L200.62 25.5294L206.594 31.503L197.633 40.4635L206.594 49.4239L200.62 55.3976L191.66 46.4371L182.699 55.3976L176.725 49.4239Z"/>
    </mask>
    <path d="M176.725 49.4239L174.604 47.3026L172.483 49.4239L174.604 51.5453L176.725 49.4239ZM185.686 40.4635L187.807 42.5848L189.929 40.4635L187.807 38.3422L185.686 40.4635ZM176.726 31.503L174.604 29.3817L172.483 31.503L174.604 33.6243L176.726 31.503ZM182.699 25.5294L184.82 23.4081L182.699 21.2867L180.578 23.4081L182.699 25.5294ZM191.66 34.4898L189.538 36.6112L191.66 38.7325L193.781 36.6112L191.66 34.4898ZM200.62 25.5294L202.741 23.4081L200.62 21.2867L198.499 23.4081L200.62 25.5294ZM206.594 31.503L208.715 33.6243L210.836 31.503L208.715 29.3817L206.594 31.503ZM197.633 40.4635L195.512 38.3422L193.391 40.4635L195.512 42.5848L197.633 40.4635ZM206.594 49.4239L208.715 51.5453L210.836 49.4239L208.715 47.3026L206.594 49.4239ZM200.62 55.3976L198.499 57.5189L200.62 59.6402L202.741 57.5189L200.62 55.3976ZM191.66 46.4371L193.781 44.3158L191.66 42.1945L189.538 44.3158L191.66 46.4371ZM182.699 55.3976L180.578 57.5189L182.699 59.6402L184.82 57.5189L182.699 55.3976ZM178.847 51.5453L187.807 42.5848L183.565 38.3422L174.604 47.3026L178.847 51.5453ZM187.807 38.3422L178.847 29.3817L174.604 33.6243L183.565 42.5848L187.807 38.3422ZM178.847 33.6243L184.82 27.6507L180.578 23.4081L174.604 29.3817L178.847 33.6243ZM180.578 27.6507L189.538 36.6112L193.781 32.3685L184.82 23.4081L180.578 27.6507ZM193.781 36.6112L202.741 27.6507L198.499 23.4081L189.538 32.3685L193.781 36.6112ZM198.499 27.6507L204.472 33.6243L208.715 29.3817L202.741 23.4081L198.499 27.6507ZM204.472 29.3817L195.512 38.3422L199.755 42.5848L208.715 33.6243L204.472 29.3817ZM195.512 42.5848L204.472 51.5453L208.715 47.3026L199.755 38.3422L195.512 42.5848ZM204.472 47.3026L198.499 53.2763L202.741 57.5189L208.715 51.5453L204.472 47.3026ZM202.741 53.2763L193.781 44.3158L189.538 48.5584L198.499 57.5189L202.741 53.2763ZM189.538 44.3158L180.578 53.2763L184.82 57.5189L193.781 48.5584L189.538 44.3158ZM184.82 53.2763L178.847 47.3026L174.604 51.5453L180.578 57.5189L184.82 53.2763Z" fill="white" mask="url(#path-5-outside-3_928_763)"/>
    <path d="M70.7255 49.4239L79.686 40.4635L70.7255 31.503L76.6991 25.5294L85.6596 34.4898L94.6201 25.5294L100.594 31.503L91.6332 40.4635L100.594 49.4239L94.6201 55.3976L85.6596 46.4371L76.6991 55.3976L70.7255 49.4239Z" fill="white"/>
    </svg>
