<?xml version="1.0" encoding="UTF-8"?><svg id="Layer_1" xmlns="http://www.w3.org/2000/svg" viewBox="0 0 1002 1002"><defs><style>.cls-1{fill:none;stroke:gray;stroke-miterlimit:10;stroke-width:2px;}</style></defs><rect class="cls-1" x="1" y="1" width="1000" height="1000"/><line class="cls-1" x1="1" y1="876" x2="1001" y2="876"/><line class="cls-1" x1="1" y1="751" x2="1001" y2="751"/><line class="cls-1" x1="1" y1="626" x2="1001" y2="626"/><line class="cls-1" x1="1" y1="501" x2="1001" y2="501"/><line class="cls-1" x1="1" y1="376" x2="1001" y2="376"/><line class="cls-1" x1="1" y1="251" x2="1001" y2="251"/><line class="cls-1" x1="1" y1="126" x2="1001" y2="126"/><line class="cls-1" x1="876" y1="1" x2="876" y2="1001"/><line class="cls-1" x1="751" y1="1" x2="751" y2="1001"/><line class="cls-1" x1="626" y1="1" x2="626" y2="1001"/><line class="cls-1" x1="501" y1="1" x2="501" y2="1001"/><line class="cls-1" x1="376" y1="1" x2="376" y2="1001"/><line class="cls-1" x1="251" y1="1" x2="251" y2="1001"/><line class="cls-1" x1="126" y1="1" x2="126" y2="1001"/></svg>