<svg width="44" height="41" viewBox="0 0 44 41" fill="none" xmlns="http://www.w3.org/2000/svg">
<path d="M8.16349 8.86248C5.84993 11.4426 1.97673 8.68356 1.82277 9.62337C1.66882 10.5632 2.18144 13.3378 5.11994 14.1887C7.38374 14.9149 8.38133 15.0164 9.93889 14.9496C11.452 16.1524 12.0975 16.8436 11.207 18.2467C11.1799 18.3654 11.0312 18.2538 9.93889 19.2613C7.30728 21.9704 6.00497 23.6229 6.38809 28.6455C6.89535 32.1963 9.41132 34.959 11.7143 36.508C15.9929 39.3858 20.8828 39.8052 22.3667 39.8052C24.6493 39.8052 28.4538 39.8052 32.0046 38.0298C35.5554 36.2544 36.5699 35.2398 36.5699 35.2398C40.6752 32.1634 42.1355 29.5333 42.1497 22.0512C42.1639 14.569 42.1497 19.5149 42.1497 18.2467C42.1497 16.9786 41.6424 14.9496 41.1352 14.4423C40.6279 13.9351 38.8525 15.9641 37.3308 16.725C35.809 17.4859 32.7655 18.2467 31.4973 18.5004C30.2292 18.754 25.1566 18.754 24.3957 18.5004C23.6348 18.2467 22.8739 17.7395 22.8739 17.2322C22.8739 16.725 23.3812 16.2177 23.8885 15.4568C24.3957 14.6959 24.903 13.1742 24.903 13.1742L25.4102 11.1451C25.6277 10.1316 25.6636 9.37908 25.6357 7.84797C25.3123 6.20881 24.8793 5.32851 23.8885 3.78991C22.2494 2.03333 21.1752 1.33016 17.5477 1C17.5477 1 13.7433 1.25363 11.7143 2.7754C9.68526 4.29717 8.79752 6.10475 8.16349 8.86248Z" stroke="white" stroke-width="1.71806"/>
</svg>
