<svg width="63" height="61" viewBox="0 0 63 61" fill="none" xmlns="http://www.w3.org/2000/svg">
    <path
        d="M11.3029 13.4913C7.92155 17.2623 2.26072 13.2298 2.03571 14.6034C1.81069 15.9769 2.55991 20.0322 6.85465 21.2758C10.1633 22.3371 11.6213 22.4855 13.8977 22.3878C16.1092 24.1457 17.0526 25.156 15.7512 27.2068C15.7115 27.3802 15.4942 27.2171 13.8977 28.6895C10.0515 32.6491 8.14815 35.0642 8.70809 42.405C9.44947 47.5946 13.1267 51.6324 16.4925 53.8963C22.7458 58.1023 29.8926 58.7152 32.0614 58.7152C35.3976 58.7152 40.9579 58.7152 46.1476 56.1204C51.3372 53.5256 52.8199 52.0429 52.8199 52.0429C58.8201 47.5466 60.9543 43.7026 60.9751 32.7671C60.9959 21.8316 60.9751 29.0602 60.9751 27.2068C60.9751 25.3533 60.2337 22.3878 59.4923 21.6465C58.7509 20.9051 56.1561 23.8706 53.932 24.9826C51.7079 26.0947 47.2596 27.2068 45.4062 27.5775C43.5527 27.9481 36.139 27.9481 35.0269 27.5775C33.9149 27.2068 32.8028 26.4654 32.8028 25.724C32.8028 24.9826 33.5442 24.2413 34.2855 23.1292C35.0269 22.0171 35.7683 19.793 35.7683 19.793L36.5097 16.8275C36.8275 15.3463 36.88 14.2463 36.8392 12.0086C36.3666 9.61287 35.7337 8.32628 34.2855 6.07757C31.89 3.51025 30.32 2.48254 25.0184 2C25.0184 2 19.458 2.37069 16.4925 4.59481C13.527 6.81894 12.2296 9.46079 11.3029 13.4913Z"
        stroke="#FCC018" stroke-width="3" />
</svg>