<?xml version="1.0" encoding="UTF-8" standalone="no"?>
<!DOCTYPE svg PUBLIC "-//W3C//DTD SVG 1.1//EN" "http://www.w3.org/Graphics/SVG/1.1/DTD/svg11.dtd">
<svg width="100%" height="100%" viewBox="0 0 400 520" version="1.1" xmlns="http://www.w3.org/2000/svg" xmlns:xlink="http://www.w3.org/1999/xlink" xml:space="preserve" xmlns:serif="http://www.serif.com/" style="fill-rule:evenodd;clip-rule:evenodd;stroke-linejoin:round;stroke-miterlimit:2;">
    <g transform="matrix(1,0,0,1,-639,-679.232)">
        <g transform="matrix(0.666667,0,0,0.866667,212.514,679.232)">
            <rect x="639.729" y="0" width="600" height="600" style="fill:none;"/>
            <clipPath id="_clip1">
                <rect x="639.729" y="0" width="600" height="600"/>
            </clipPath>
            <g clip-path="url(#_clip1)">
                <g transform="matrix(0.978503,0,0,1.00307,27.3459,9.38604)">
                    <path d="M1226.76,0L639,0L639,381.52L1223.78,577.684L1239.02,127.333L1239.02,91.682L1226.76,0Z" style="fill:rgb(33,33,33);"/>
                </g>
                <g transform="matrix(1.5,0,0,1.15385,489.729,-46.1538)">
                    <path d="M488.502,555.775L488.498,555.778L107.413,385.645C107.413,385.645 105.484,384.703 105.247,384.538C102.153,382.634 100.072,379.243 100.002,375.364L100,375.358L100,51C100,44.929 104.929,40 111,40L489,40C495.071,40 500,44.929 500,51L500,130.142C500,130.142 500,130.524 500,130.561C500,130.744 499.762,130.885 499.629,130.822C499.604,130.811 499.451,130.738 499.323,130.677C497.905,130.003 494.598,128.43 492.666,127.619C490.121,126.55 487.422,125.461 484.729,124.583C481.558,123.549 476.666,122.189 473.644,121.416C471.318,120.821 468.493,120.243 466.593,119.945C460.584,119 451.159,117.974 442.742,117.546C440.179,117.416 437.887,117.286 435.459,117.341C432.586,117.407 427.044,117.791 425.505,117.939C419.288,118.533 415.274,119.254 408.037,120.907C399.064,123.023 391.038,126.032 386.913,127.926C385.743,128.483 379.612,131.324 374.763,134.221C372.199,135.781 368.131,138.399 364.564,141.017C360.941,143.691 357.597,146.532 356.148,147.758C352.748,150.711 349.348,154.22 346.505,157.618C342.994,161.741 336.752,171.044 336.417,171.546C335.135,173.551 332.46,177.785 330.063,182.353C327.667,186.977 325.828,191.378 324.378,195.11C322.985,198.676 321.759,202.352 320.756,205.918C319.752,209.483 318.359,217.059 318.359,217.115L318.08,218.675C317.969,219.232 317.579,219.733 317.077,219.901C317.077,219.901 314.535,220.871 313.422,221.262C311.727,221.857 309.396,222.606 307.714,222.909C304.76,223.466 300.468,223.967 296.344,224.19C293.038,224.41 288.688,224.561 285.138,224.642C284.198,224.663 270.434,224.682 267.74,224.668C263.787,224.646 259.874,224.613 256.493,224.58C255.657,224.58 251.087,224.469 249.693,224.469C245.848,224.469 241.89,224.636 239.327,225.973C239.268,226.002 239.003,226.152 238.747,226.334C238.64,226.411 238.475,226.523 238.339,226.636C238.178,226.769 238.052,226.899 238.032,226.919C237.913,227.033 237.826,227.148 237.627,227.377C237.554,227.46 237.357,227.719 237.211,227.916C237.137,228.016 236.878,228.381 236.797,228.504C236.766,228.552 236.615,228.832 236.596,228.871C236.384,229.303 236.136,229.858 235.983,230.318C235.76,230.931 235.384,232.425 235.339,232.657C235.183,233.458 235.053,234.356 234.924,235.22C234.478,238.786 234.422,242.128 234.645,244.747C235.369,252.044 238.268,259.955 242.559,266.362C246.684,272.545 252.146,277.002 256.939,280.511C261.398,283.798 266.804,286.584 273.938,289.369C280.811,291.989 293.211,295.485 301.449,297.796C302.496,298.09 307.145,299.378 307.928,299.58C311.97,300.623 316.077,301.464 318.972,302.071C322.929,302.851 327.444,303.519 330.565,303.909C332.177,304.124 333.95,304.247 335.604,304.337C336.523,304.387 341.284,304.457 342.094,304.447C343.311,304.431 344.276,304.41 344.276,304.41L345,304.41C345.223,304.41 345.446,304.466 345.669,304.578L346.282,304.856C346.505,304.968 347.676,305.525 349.013,306.527C349.682,307.029 353.194,309.703 355.813,312.878C357.82,315.329 358.823,317.948 359.547,320.009C359.814,320.72 360.188,321.893 360.469,323.215C360.54,323.55 360.823,325.788 360.872,326.346C360.904,326.71 360.939,327.002 360.935,327.33C360.931,327.732 360.9,328.35 360.845,328.757C360.73,329.612 360.551,330.482 360.551,330.482C360.314,331.332 359.898,332.122 359.378,332.869C358.67,333.884 357.771,334.82 356.872,335.719C356.649,335.941 355.96,336.694 355.797,336.856C354.383,338.26 352.354,340.039 351.354,340.788C350.184,341.679 346.262,344.719 345.559,345.262C343.082,347.173 340.699,349.025 339.093,350.37C339.093,350.37 328.559,359.005 322.261,365.523C315.294,372.821 309.609,380.62 308.215,382.737C306.766,384.965 303.032,390.982 300.245,397.388C298.74,400.842 297.101,405.425 295.786,409.532C294.393,413.887 290.753,432.627 290.753,432.627C290.753,432.627 290.672,432.961 290.62,433.177C290.215,434.843 288.979,435.832 287.909,436.268C286.941,436.662 285.675,436.765 284.291,436.14C283.713,435.879 283.022,435.567 283.022,435.567L127.499,366.218C127.499,366.218 127.375,366.161 127.28,366.119C126.437,365.748 125.841,365.199 125.486,364.704C125.09,364.152 124.568,363.297 124.568,361.926L124.569,69.083C124.569,66.6 126.585,64.583 129.069,64.583C129.102,64.55 463.447,64.584 470.826,64.585C470.867,64.584 470.908,64.583 470.95,64.583C473.434,64.583 475.45,66.6 475.45,69.083L475.45,107.777C475.45,109.811 476.03,111.405 477.9,111.899C479.145,112.227 483.704,113.397 484.283,113.553C485.573,113.902 486.893,112.946 486.899,111.614L486.91,106.709C486.91,106.709 486.882,74.56 486.899,63.723C486.662,57.861 481.819,53.174 475.899,53.174L124.12,53.174C118.048,53.174 113.12,58.103 113.12,64.174L113.12,365.24C113.12,369.212 115.216,371.87 115.928,372.59C117.287,373.965 118.126,374.606 119.635,375.284C119.865,375.387 120.034,375.463 120.034,375.463L283.535,448.847C283.535,448.847 285.069,449.509 286.537,450.194C289.632,451.639 293.122,451.319 295.633,450.166C298.144,449.012 300.616,446.591 301.602,443.273C301.809,442.578 302.044,441.694 302.044,441.694C302.044,441.694 309.073,412.048 310.612,407.248C311.863,403.347 313.845,399.486 315.684,396.051C317.437,392.776 319.47,389.646 321.647,386.636C323.83,383.619 326.244,380.704 328.782,377.946C331.496,374.994 336.793,369.965 337.936,368.928C339.079,367.89 342.325,365.133 342.771,364.743C346.346,361.522 351.634,357.358 355.009,354.741C355.895,354.054 358.656,351.93 358.656,351.93C364.173,347.696 370.471,342.905 373.202,333.825C374.763,328.699 374.484,323.24 372.478,317.223C370.862,312.265 368.465,307.809 365.678,304.299C363.97,302.242 361.987,300.322 359.458,298.188C359.068,297.86 358.666,297.526 358.251,297.187C357.93,296.925 356.299,295.803 356.071,295.67C355.396,295.273 354.484,294.763 353.446,294.232C351.856,293.419 349.968,292.558 348.177,291.987C347.063,291.653 345.892,291.486 344.499,291.486C343.886,291.486 343.273,291.542 342.827,291.542C342.604,291.542 339.232,291.634 338.57,291.607C337.655,291.569 331.91,291.284 330.627,291.145C326.935,290.747 323.258,290.025 319.934,289.292C318.948,289.074 310.142,287.056 307.154,286.324C300.271,284.639 291.696,282.334 284.584,279.732C275.164,276.278 268.309,272.879 263.014,268.924C259.503,266.306 257.106,264.133 255.267,261.793C253.525,259.65 252.176,257.077 251.107,254.907C250.842,254.37 250.109,252.912 250.007,252.689C249.18,250.873 248.263,248.396 247.966,246.362C247.84,245.516 247.772,244.763 247.739,244.122C247.724,243.821 247.753,242.533 247.808,241.98C247.931,240.752 248.133,239.231 248.133,239.231C248.244,238.452 248.913,237.839 249.749,237.839L252.313,237.894C252.926,237.894 266.86,238.006 270.037,238.062C272.712,238.117 277.004,238.173 280.125,238.173C282.521,238.173 284.639,238.173 285.587,238.117C291.049,238.006 297.737,237.672 302.642,237.17C306.097,236.836 311.392,235.833 313.287,235.388C317.244,234.385 320.143,233.326 322.205,232.212C323.74,231.351 325.703,229.862 327.097,228.707C327.777,228.142 328.965,226.848 329.344,226.218C329.785,225.486 330.3,224.566 330.509,223.967C330.899,222.575 331.234,220.792 331.568,219.065C331.791,217.951 332.014,216.781 332.237,215.722C332.404,214.943 332.572,214.218 332.739,213.494C333.185,211.6 333.575,209.595 334.188,207.589C334.634,206.141 335.135,204.748 335.693,203.355C336.083,202.408 336.417,201.517 336.696,200.57C338.312,195.612 340.876,190.821 342.938,186.977C345.948,181.462 349.292,176.058 352.135,172.158C358.544,163.412 367.239,156.003 371.865,152.382C376.774,148.552 381.957,145.236 387.37,142.461C391.627,140.278 396.025,138.43 400.545,136.928C400.979,136.784 405.407,135.46 409.088,134.486C412.223,133.657 415.893,132.758 418.738,132.271C423.418,131.507 428.016,131.03 432.462,130.874C433.205,130.848 440.12,130.864 442.148,130.951C445.372,131.088 448.97,131.338 452.904,131.714C458.645,132.271 464.329,133.051 468.956,133.998C472.746,134.778 477.093,136.004 482.276,137.842C485.193,138.889 488.407,140.309 490.914,141.493C491.474,141.757 498.059,145.08 498.221,145.174C499.118,145.692 499.995,146.009 500,147.663C500.001,147.844 500,148.158 500,148.158L500,548.58C500,552.995 496.415,556.58 492,556.58C490.746,556.58 489.559,556.29 488.502,555.775ZM167.178,158.866L169.123,160.498L194.77,182.018C197.307,184.147 201.094,183.815 203.223,181.278C205.352,178.742 205.02,174.954 202.483,172.826L181.24,155L202.483,137.174C205.02,135.046 205.352,131.258 203.223,128.722C201.094,126.185 197.307,125.853 194.77,127.982C194.77,127.982 167.132,151.173 167.121,151.182C166.037,152.1 165.348,153.47 165.348,155C165.348,156.557 166.061,157.948 167.178,158.866ZM302.304,158.868C303.421,157.951 304.134,156.56 304.134,155.003C304.134,153.473 303.446,152.103 302.362,151.185C302.35,151.176 274.712,127.985 274.712,127.985C272.176,125.856 268.388,126.188 266.259,128.724C264.131,131.261 264.462,135.049 266.999,137.177L288.243,155.003L266.999,172.828C264.462,174.957 264.131,178.745 266.259,181.281C268.388,183.818 272.176,184.149 274.712,182.021L300.359,160.501L302.304,158.868ZM250.024,114.176L208.798,190.104C207.218,193.014 208.298,196.66 211.208,198.24C214.118,199.82 217.764,198.74 219.344,195.83L260.57,119.901C262.15,116.991 261.07,113.346 258.16,111.766C255.25,110.185 251.604,111.265 250.024,114.176Z" style="fill:rgb(252,192,24);"/>
                </g>
            </g>
        </g>
    </g>
</svg>
