<?xml version="1.0" encoding="UTF-8" standalone="no"?>
<!DOCTYPE svg PUBLIC "-//W3C//DTD SVG 1.1//EN" "http://www.w3.org/Graphics/SVG/1.1/DTD/svg11.dtd">
<svg width="100%" height="100%" viewBox="0 0 400 400" version="1.1" xmlns="http://www.w3.org/2000/svg" xmlns:xlink="http://www.w3.org/1999/xlink" xml:space="preserve" xmlns:serif="http://www.serif.com/" style="fill-rule:evenodd;clip-rule:evenodd;stroke-linejoin:round;stroke-miterlimit:2;">
    <g transform="matrix(1.10143,0,0,1.10143,-20.2312,-20.2863)">
        <path id="Macquarie" d="M322.9,315C322.9,308.5 318.9,303.3 309.7,303.3L288.3,303.3L288.3,343.5L294,343.5L294,326.7L306.6,326.7L317.8,343.5L324.4,343.5L313,326.4C320.5,325.1 322.9,319.6 322.9,315M294,321.4L294,308.7L309.5,308.7C314.4,308.7 317.1,310.9 317.1,315C317.1,319.1 314.4,321.4 309.5,321.4L294,321.4ZM232.9,303.3L238.7,303.3L238.7,326.5C238.7,337.2 232.1,344.3 220.9,344.3C209.7,344.3 203.1,337.3 203.1,326.5L203.1,303.3L208.9,303.3L208.9,325.9C208.9,334.2 213.2,338.7 220.9,338.7C228.6,338.7 232.9,334.2 232.9,325.9L232.9,303.3ZM379.4,338L379.4,343.4L347.5,343.4L347.5,303.2L379.1,303.2L379.1,308.6L353.3,308.6L353.3,320L376.4,320L376.4,325.3L353.3,325.3L353.3,338L379.4,338ZM332,303.3L337.8,303.3L337.8,343.5L332,343.5L332,303.3ZM88.4,303.3L69.9,343.5L75.8,343.5L80.5,333.1L101,333.1L105.7,343.6L111.5,343.6L93,303.4L88.4,303.3ZM82.9,327.8L90.8,310.3L98.7,327.8L82.9,327.8ZM260,303.3L241.5,343.5L247.4,343.5L252.1,333.1L272.6,333.1L277.3,343.6L283.2,343.6L264.7,303.4L260,303.3ZM254.5,327.8L262.4,310.3L270.3,327.8L254.5,327.8ZM56.1,303.3L64.8,303.3L64.8,343.5L59.3,343.5L59.3,309.3L45.2,343.5L40.2,343.5L26,309.2L26,343.4L20.5,343.4L20.5,303.2L29.2,303.2L42.6,335.8L56.1,303.3ZM133.7,307.9C125.7,307.9 118.6,313.8 118.6,323.4C118.6,333 125.8,338.9 133.7,338.9C138.7,338.9 142.9,336.5 146.1,331.8L150.5,335.2C146.8,340.9 140.5,344.3 133.7,344.3C122.2,344.3 112.8,334.9 112.8,323.4C112.8,311.9 122.2,302.5 133.7,302.5C140.5,302.5 146.8,305.9 150.5,311.6L146.1,315C142.9,310.2 138.7,307.9 133.7,307.9M195.7,323.4C195.5,312 186.2,303 174.8,303.1C163.4,303.3 154.4,312.6 154.5,324C154.7,335.2 163.8,344.3 175.1,344.3C180,344.3 184.7,342.6 188.5,339.4L193,343.5L201,343.5L192.1,335.4C194.4,331.8 195.7,327.6 195.7,323.4M187.7,331.4L182.4,326.6L178.6,330.4L184.2,335.5C181.6,337.6 178.4,338.8 175,338.8C166.7,338.8 160.3,332 160.3,323.3C160.3,314.6 166.8,307.8 175,307.8C183.2,307.8 189.7,314.6 189.7,323.3C189.8,326.2 189.1,329 187.7,331.4M199.9,55.7C137.7,55.7 89,101.2 89,159.4C89,217.6 137.7,263.1 199.9,263.1C262.1,263.1 310.7,217.7 310.7,159.4C310.7,101.1 262.1,55.7 199.9,55.7M132.8,231C133.2,231.3 133.2,231.8 133,232.2C133,232.2 133,232.3 132.9,232.3C132.6,232.6 132,232.5 131.5,232.1C113.2,217.2 96.7,192.6 96.7,159.5C96.7,126.4 113.2,101.9 131.5,86.9C132.1,86.4 132.6,86.4 132.9,86.7C133.2,87 133.2,87.6 132.9,87.9C132.9,87.9 132.8,87.9 132.8,88C119.3,102.1 106,125.7 106,159.5C106,193.3 119.2,216.8 132.8,231M167,204C166.8,204.4 166.2,204.4 165.5,204.1C150,194.8 137.8,179.7 137.8,159.5C137.8,139.3 150,124.3 165.5,114.9C166.1,114.5 166.7,114.6 167,114.9C167.2,115.3 167.1,115.8 166.7,116C142.7,137.2 140.5,173.9 161.8,197.9C163.3,199.6 165,201.3 166.7,202.8C167.2,203 167.3,203.5 167,204M199.9,207.7C175.9,207.7 154.8,186.8 154.8,159.4C154.8,132 175.8,111.1 199.9,111.1C224,111.1 245,132 245,159.4C245,186.8 224,207.7 199.9,207.7M234.2,204C233.6,204.4 233,204.3 232.7,203.9C232.5,203.5 232.6,203 233,202.8C257.4,182 260.8,146.1 240,121.7C238,119.4 235.9,117.2 233,115.9C232.6,115.7 232.5,115.2 232.7,114.8C232.9,114.4 233.5,114.4 234.2,114.8C249.7,124.1 261.9,139.2 261.9,159.4C261.9,179.6 249.7,194.6 234.2,204M268.4,232C267.8,232.5 267.3,232.5 267,232.2C266.7,231.9 266.7,231.3 267,231C280.5,216.8 293.7,193.2 293.7,159.5C293.7,125.8 280.5,102.1 267,88C266.6,87.7 266.6,87.2 266.8,86.8C266.8,86.8 266.8,86.7 266.9,86.7C267.2,86.4 267.8,86.5 268.3,86.9C286.6,101.8 303.1,126.4 303.1,159.5C303.1,192.6 286.7,217.1 268.4,232" style="fill:rgb(35,31,32);fill-rule:nonzero;"/>
    </g>
</svg>
