<?xml version="1.0" encoding="UTF-8" standalone="no"?>
<!DOCTYPE svg PUBLIC "-//W3C//DTD SVG 1.1//EN" "http://www.w3.org/Graphics/SVG/1.1/DTD/svg11.dtd">
<svg width="100%" height="100%" viewBox="0 0 193 34" version="1.1" xmlns="http://www.w3.org/2000/svg" xmlns:xlink="http://www.w3.org/1999/xlink" xml:space="preserve" xmlns:serif="http://www.serif.com/" style="fill-rule:evenodd;clip-rule:evenodd;stroke-linejoin:round;stroke-miterlimit:2;">
    <path d="M169.3,13.579C169.3,10.926 167.683,8.81 163.899,8.81L155.173,8.81L155.173,25.195L157.529,25.195L157.529,18.348L162.685,18.348L167.242,25.195L169.969,25.195L165.311,18.234C168.332,17.724 169.3,15.48 169.3,13.579ZM157.521,16.192L157.521,11.011L163.831,11.011C165.837,11.011 166.945,11.927 166.945,13.585C166.945,15.243 165.837,16.197 163.831,16.197L157.521,16.192Z" style="fill-rule:nonzero;"/>
    <path d="M132.582,18.029C132.582,21.397 130.842,23.251 127.674,23.251C124.505,23.251 122.766,21.397 122.766,18.029L122.766,8.81L120.41,8.81L120.41,18.283C120.41,22.646 123.087,25.531 127.666,25.531C132.244,25.531 134.919,22.659 134.919,18.283L134.919,8.81L132.563,8.81L132.582,18.029Z" style="fill-rule:nonzero;"/>
    <path d="M181.71,23L181.71,17.808L191.123,17.808L191.123,15.635L181.71,15.635L181.71,11.005L192.216,11.005L192.216,8.81L179.354,8.81L179.354,25.195L192.363,25.195L192.363,23L181.71,23Z" style="fill-rule:nonzero;"/>
    <rect x="172.99" y="8.81" width="2.356" height="16.385"/>
    <path d="M73.627,8.81L66.101,25.195L68.487,25.195L70.417,20.92L78.769,20.92L80.703,25.195L83.088,25.195L75.56,8.81L73.627,8.81ZM71.372,18.815L74.595,11.687L77.804,18.815L71.372,18.815Z" style="fill-rule:nonzero;"/>
    <path d="M143.62,8.81L136.091,25.195L138.48,25.195L140.41,20.92L148.762,20.92L150.696,25.195L153.082,25.195L145.553,8.81L143.62,8.81ZM141.365,18.815L144.588,11.687L147.808,18.815L141.365,18.815Z" style="fill-rule:nonzero;"/>
    <path d="M54.992,22.122L49.53,8.81L45.969,8.81L45.969,25.195L48.202,25.195L48.202,11.237L53.975,25.195L56.009,25.195L61.781,11.237L61.781,25.195L64.015,25.195L64.015,8.81L60.454,8.81L54.992,22.122Z" style="fill-rule:nonzero;"/>
    <path d="M92.109,10.683C94.159,10.683 95.858,11.651 97.159,13.563L98.966,12.183C97.465,9.861 94.876,8.461 92.111,8.475C87.274,8.475 83.53,12.167 83.53,17.004C83.53,21.841 87.274,25.533 92.111,25.533C94.878,25.544 97.467,24.14 98.966,21.814L97.164,20.451C95.863,22.359 94.165,23.33 92.114,23.33C88.858,23.33 85.938,20.906 85.938,17.01C85.938,13.113 88.853,10.683 92.109,10.683Z" style="fill-rule:nonzero;"/>
    <path d="M117.391,17.004C117.391,12.3 113.71,8.478 108.995,8.478C104.322,8.478 100.6,12.254 100.6,17.004C100.6,21.708 104.281,25.531 108.995,25.531C110.996,25.538 112.933,24.824 114.449,23.518L116.295,25.195L119.523,25.195L115.894,21.893C116.877,20.453 117.399,18.748 117.391,17.004ZM114.146,20.303L111.995,18.348L110.451,19.905L112.742,21.989C111.69,22.862 110.363,23.338 108.995,23.333C105.625,23.333 102.997,20.56 102.997,17.018C102.997,13.476 105.636,10.7 108.995,10.7C112.355,10.7 114.994,13.476 114.994,17.018C115.001,18.168 114.709,19.3 114.146,20.303Z" style="fill-rule:nonzero;"/>
    <path d="M18.813,0C8.618,0 0.637,7.45 0.637,17.001C0.637,26.553 8.618,34 18.813,34C29.009,34 36.987,26.55 36.987,17.001C36.987,7.452 28.995,0 18.813,0ZM7.803,28.729C7.837,28.756 7.858,28.798 7.858,28.842C7.858,28.878 7.844,28.913 7.819,28.939C7.77,28.983 7.674,28.977 7.584,28.901C3.981,26.004 1.882,21.623 1.882,17C1.882,12.377 3.981,7.996 7.584,5.099C7.674,5.023 7.77,5.017 7.819,5.061C7.844,5.087 7.858,5.122 7.858,5.158C7.858,5.202 7.837,5.244 7.803,5.271C5.583,7.597 3.418,11.452 3.418,17.001C3.418,22.55 5.583,26.403 7.803,28.729ZM13.425,24.298C13.387,24.355 13.291,24.372 13.185,24.298C10.647,22.771 8.642,20.306 8.642,16.993C8.642,13.68 10.647,11.223 13.18,9.694C13.286,9.628 13.381,9.645 13.42,9.694C13.458,9.754 13.439,9.835 13.379,9.874C11.32,11.664 10.149,14.273 10.18,17.001C10.153,19.727 11.326,22.331 13.384,24.118C13.445,24.156 13.463,24.238 13.425,24.298ZM18.813,24.923C14.87,24.923 11.421,21.503 11.421,17.001C11.421,12.499 14.87,9.077 18.813,9.077C22.756,9.077 26.203,12.497 26.203,17.001C26.203,21.506 22.753,24.923 18.813,24.923ZM24.438,24.306C24.332,24.372 24.237,24.355 24.199,24.306C24.186,24.286 24.179,24.262 24.179,24.238C24.179,24.193 24.203,24.15 24.242,24.126C26.3,22.339 27.472,19.735 27.446,17.01C27.474,14.28 26.302,11.672 24.242,9.882C24.203,9.858 24.179,9.816 24.179,9.77C24.179,9.746 24.186,9.722 24.199,9.702C24.237,9.645 24.332,9.628 24.438,9.702C26.977,11.223 28.995,13.686 28.995,17.001C28.995,20.317 26.977,22.779 24.438,24.306ZM30.042,28.904C29.949,28.98 29.857,28.985 29.807,28.942C29.778,28.915 29.761,28.877 29.761,28.837C29.761,28.797 29.778,28.759 29.807,28.732C32.027,26.406 34.195,22.539 34.195,17.007C34.195,11.474 32.013,7.602 29.807,5.282C29.778,5.255 29.761,5.217 29.761,5.177C29.761,5.137 29.778,5.099 29.807,5.072C29.857,5.028 29.949,5.034 30.042,5.11C33.645,8.007 35.744,12.388 35.744,17.011C35.744,21.634 33.645,26.015 30.042,28.912L30.042,28.904Z" style="fill-rule:nonzero;"/>
</svg>
