<?xml version="1.0" encoding="utf-8"?>
<svg version="1.1"
	 id="svg4343" xmlns:cc="http://creativecommons.org/ns#" xmlns:dc="http://purl.org/dc/elements/1.1/" xmlns:inkscape="http://www.inkscape.org/namespaces/inkscape" xmlns:rdf="http://www.w3.org/1999/02/22-rdf-syntax-ns#" xmlns:sodipodi="http://sodipodi.sourceforge.net/DTD/sodipodi-0.dtd" xmlns:svg="http://www.w3.org/2000/svg"
	 xmlns="http://www.w3.org/2000/svg" xmlns:xlink="http://www.w3.org/1999/xlink" x="0px" y="0px" viewBox="0 0 350 350"
	 style="enable-background:new 0 0 322.9 352.1;" xml:space="preserve">
<style type="text/css">
	.st0{fill-rule:evenodd;clip-rule:evenodd;}
</style>
<sodipodi:namedview  bordercolor="#666666" borderopacity="1.0" fit-margin-bottom="0" fit-margin-left="0" fit-margin-right="0" fit-margin-top="0" id="base" inkscape:current-layer="layer1" inkscape:cx="97.664331" inkscape:cy="18.899333" inkscape:document-units="mm" inkscape:pageopacity="0.0" inkscape:pageshadow="2" inkscape:window-height="744" inkscape:window-maximized="1" inkscape:window-width="1280" inkscape:window-x="-4" inkscape:window-y="-4" inkscape:zoom="4.1059002" pagecolor="#ffffff" showgrid="false" units="px">
	</sodipodi:namedview>
<g>
	<path id="path4232" inkscape:connector-curvature="0" d="M271,254.5c-11.1,10.6-23.3,18.9-36.5,24.6c-2.6,0.9-5.2,2-7.6,2.8
		c2.4-1.5,5-3.1,7.6-4.8c13.3-9.1,25.7-19.8,36.5-32.4c20.9-24.6,35-56.1,34.5-94.5c-0.7-38-14.3-68.5-34.5-92.6
		c-10.6-12.4-23.2-23.2-36.5-32.4c-2.6-1.7-5.2-3.3-7.6-5c2.4,1.3,5,2.4,7.6,3.7c13.3,6.7,25.6,15.2,36.5,25.4
		c26.1,25,43.2,59.8,43.9,101C315.6,191.5,297.5,229.1,271,254.5 M208.9,208.9c-4.4,2.6-8.9,4.4-13.3,5.3c4.8-3.1,9.3-6.5,13.3-10.2
		c13.3-12.4,21.5-28.5,21.3-52.8c-0.4-23.9-8.3-40.2-21.3-52.6c-4.1-3.9-8.5-7.2-13.3-10.6c4.4,1.6,8.9,3.7,13.3,6.3
		c10.4,6.3,19.4,15.8,25.6,27.4c4.4,8.7,7.2,18.7,7.4,29.5c0,11.1-2.8,21.5-7.4,30.5C228.4,193.5,219.1,203,208.9,208.9
		 M100.5,151.2c0-35.3,28.3-67,61-68.4c32.6,1.4,60.9,33,60.9,68.4c0,35.4-28.3,67-60.9,68.4C128.8,218.2,100.5,186.5,100.5,151.2
		 M114.3,209.1c-10.4-5.9-19.6-15.4-25.7-27.3c-4.8-9.1-7.6-19.4-7.4-30.5c0-10.8,2.8-20.7,7.4-29.5c5.9-11.9,15.2-21.3,25.7-27.6
		c4.1-2.4,8.5-4.5,13-6.1c-4.8,3.2-9.1,6.5-13,10.2c-13.3,12.6-21.3,28.9-21.5,53c-0.4,24.4,8,40.6,21.5,53c3.9,3.7,8.2,7,13,10
		C122.8,213.4,118.4,211.5,114.3,209.1 M88.4,279.2c-13.2-5.7-25.4-14.1-36.5-24.6c-26.5-25.4-44.6-63-43.9-104.3
		c0.7-41.1,17.8-76,43.9-101C62.8,39.1,75,30.6,88.4,23.9c2.6-1.3,5.2-2.4,7.6-3.7c-2.4,1.7-5,3.3-7.6,5c-13.4,9.2-26,20-36.5,32.4
		c-20.2,24.1-33.7,54.7-34.5,92.6c-0.5,38.3,13.5,69.8,34.5,94.5C62.6,257.3,75,268,88.4,277.1c2.6,1.7,5.2,3.3,7.6,4.8
		C93.5,281.2,90.9,280.1,88.4,279.2 M161.4,0C70.2,0,0,67.7,0,151.2s70.2,151.2,161.4,151.2s161.4-67.7,161.4-151.2S252.7,0,161.4,0
		"/>
	<g>
		<path id="path4236" inkscape:connector-curvature="0" class="st0" d="M279.7,333.6v9.4H302v3.9h-26.4v-29.4H302v3.9h-22.3v8.4
			h15.1v3.9L279.7,333.6L279.7,333.6z M140.9,320.1c-9.3,0-12.8,7.6-12.8,11.9c0,8.9,7.9,12.8,12.9,12.8c1.4,0,2.1-0.2,2.6-0.4
			c-0.7-0.7-3.2-2.6-6.5-1.9c0.8-1.6,4.7-3.3,10.7,0.4c3.9-2.6,5.9-5.8,5.9-10.6C153.6,324,145.9,320.1,140.9,320.1 M140.9,317.1
			c4.9,0,17.3,2.2,17.3,15.3c0,8.1-6.3,11.7-8,12.7l4.7,4.1l-2.2,3l-6-5c-1.5,0.6-3.8,0.9-5.8,0.9c-15,0-17.5-12.2-17.5-15.6
			C123.4,322.1,131.7,317.1,140.9,317.1 M265.5,317.5h4.1v29.4h-4.1v-29.2V317.5z M90.1,332.2c0,10.7,16.2,16.4,27.5,6.3l2.4,2.8
			c-0.4,0.4-5.4,6-16,6c-7.6,0-18.8-3.4-18.8-15.1c0-4.1,2.5-8.9,7.5-11.9c6.3-4.1,17.4-4.7,26,0.7l-2,3
			C106.8,316.8,90.1,321.2,90.1,332.2 M45.8,323.8l-13.2,23.7l-12.9-23.7v23.1h-4.1v-29.4h5.6l11.5,22l11.9-22h5.2v29.4h-4.1V323.8z
			 M70,321.4l6.3,14.3H63.5L70,321.4z M67.9,317.5H72l14.1,29.4h-4.5l-3.7-7.6H62l-3.7,7.6H54L67.9,317.5z M208.1,321.4l6.3,14.3
			h-12.9L208.1,321.4z M206.1,317.5h4.1l14.1,29.4h-4.5l-3.7-7.6h-16l-3.7,7.6h-4.3L206.1,317.5z M248.6,317.5
			c10.3,0,10.4,6.9,10.4,8.2c0,1.9-0.6,7-8.9,8.2l9.3,13h-5l-8.8-12.9h-12.7v12.9h-4.1v-29.4H248.6z M247.3,330.7
			c7.6-0.1,7.4-4.3,7.4-5c0-0.6-0.2-4.8-6.3-4.8h-1.1h-14.3v9.9C232.9,330.7,247.3,330.7,247.3,330.7z M176.2,344.4
			c5.9-0.1,8.3-1.6,9.2-2.6c0.9-1,1.3-2.8,1.3-4.3v-20.1h3.9v20.3c0,2.7-0.1,4.7-2.2,6.5c-1.2,1-3.6,3.3-12.2,3.3
			c-8.5,0-11-2.3-12.2-3.3c-2.1-1.8-2.2-3.8-2.2-6.5v-20.3h3.9v20.1c0,1.5,0.4,3.3,1.3,4.3C167.9,342.9,170.3,344.3,176.2,344.4"/>
	</g>
</g>
</svg>
