<?xml version="1.0" encoding="UTF-8"?>
<svg clip-rule="evenodd" fill-rule="evenodd" stroke-linejoin="round" stroke-miterlimit="2" version="1.1" viewBox="0 0 318 216" xml:space="preserve" xmlns="http://www.w3.org/2000/svg">
    <g transform="matrix(1.576 0 0 1.576 -92.458 -63.08)">
        
            
                
                    
                        
                            <clipPath id="_clip1">
                                <rect x="74.1" y="45.1" width="170.9" height="126.9"/>
                            </clipPath>
                            <g clip-path="url(#_clip1)">
                                
                                    
                                        <path d="m140.6 124.9v0.2c0.1 0.9 0 3 0 5.6s-0.3 8.1-0.4 9.1v0.2h0.2c0.2-0.1 0.5-0.1 0.7-0.1s0.5 0 0.7 0.1h0.2v-0.2c-0.1-0.8-0.2-5.2-0.2-7v-3.9c3.5 3.7 7.2 7.7 10.3 11.3h0.5v-0.2c0-0.9-0.1-5.6-0.1-7.7 0-1.6 0.2-5.8 0.3-7v-0.2h-0.2c-0.2 0.1-0.4 0.1-0.6 0.1s-0.5 0-0.7-0.1h-0.2v0.2c0.2 3.1 0.2 7 0.2 10.7-2.6-2.6-7.1-7.5-10.4-11.1h-0.3zm67.2 0c-2.8 0-4.7 1.7-4.7 4.1 0 2.6 1.7 3.4 3.4 4.1s3.2 1.2 3.2 3c0.1 1.5-1.1 2.8-2.6 2.9h-0.2c-1.4 0-2.6-0.8-3.2-2.1v-0.1h-0.5v0.2c0 0.6-0.2 1.2-0.4 1.8v0.1l0.1 0.1c1 0.8 2.2 1.3 3.5 1.2 3.3 0 5.3-2.2 5.3-4.8 0-2.4-1.7-3.2-3.4-3.9s-3.2-1.2-3.2-3.1c0-1.3 1.1-2.4 2.4-2.5h0.1c1.1 0 2.1 0.8 2.4 1.9v0.1h0.5v-0.1c0.1-0.6 0.3-1.2 0.6-1.7l0.1-0.1-0.1-0.1c-1.1-0.7-2.2-1-3.3-1zm37.2 0.2-0.3 0.1c-0.5 0.1-1.1 0.1-1.6 0h-0.1v0.1c-1.1 2.4-2.4 4.7-3.8 7-1.4-2.4-2.7-4.7-3.9-7l-0.1-0.1h-0.1c-0.7 0.1-1.5 0.1-2.3 0h-0.3l0.2 0.3c0.9 1.3 4.2 7 5.1 8.5 0 2.2 0 4.4-0.2 5.9v0.2h0.2c0.3-0.1 0.7-0.1 1-0.1s0.7 0 1 0.1h0.2v-0.2c-0.1-1.3-0.2-4.1-0.2-6.1 0.9-1.8 2.4-4.2 5-8.2l0.2-0.5zm-109.2 0-0.2 0.1c-0.2 0.1-0.4 0.1-0.6 0.1-0.3 0-0.6 0-0.8-0.1h-0.2v0.2c0.1 0.8 0.1 2.8 0.1 6.8 0.1 1.5-0.1 3-0.6 4.4-0.6 1.6-2.2 2.6-3.9 2.4-4.6 0-4.5-3.5-4.5-6.4 0-3.1 0.1-5.9 0.2-7.2v-0.2h-0.2c-0.3 0.1-0.6 0.1-0.9 0.1-0.4 0-0.7 0-1.1-0.1h-0.2v0.2c0 1.2 0.1 3.1 0.1 5.4 0 1-0.1 2-0.1 3.3-0.5 2.9 1.5 5.7 4.4 6.1 0.6 0.1 1.1 0.1 1.7 0 3.8 0 6-2.4 6.1-6.2 0-3 0.2-6.7 0.4-8.7l0.3-0.2zm81.6 0h-0.3c-0.3 0.1-0.7 0.1-1 0.1s-0.7 0-1-0.1h-0.1v0.2c0.1 1.8 0.2 3.6 0.2 5.4v3.6c0 1.8-0.1 3.6-0.2 5.4v0.3h0.2c0.3-0.1 0.7-0.1 1-0.1s0.7 0 1 0.1h0.2v-0.2c-0.1-1.8-0.2-3.6-0.2-5.4v-3.6c0-1.8 0.1-3.6 0.2-5.4v-0.3zm-129.4 0.1v0.2c0.1 1.8 0.2 3.6 0.2 5.4v3.6c0 1.8-0.1 3.6-0.2 5.4v0.2h0.2c0.7-0.1 1.3-0.1 2 0h0.2v-0.2c-0.1-1.8-0.2-3.6-0.2-5.4v-1.8h8.4v1.8c0 1.8-0.1 3.6-0.2 5.4v0.2h0.2c0.3-0.1 0.7-0.1 1-0.1s0.7 0 1 0.1h0.2v-0.2c-0.1-1.8-0.2-3.6-0.2-5.4v-3.6c0-1.8 0.1-3.6 0.2-5.4v-0.2h-0.2c-0.3 0.1-0.7 0.1-1 0.1s-0.7 0-1-0.1h-0.2v0.2c0.1 1.8 0.2 3.6 0.2 5.4v0.6c-1.4 0-2.8 0.1-4.2 0.1s-2.8 0-4.2-0.1v-0.6c0-1.8 0.1-3.6 0.2-5.4v-0.2h-0.2c-0.7 0.1-1.3 0.1-2 0h-0.2zm69.3 0v0.2c0.1 1.8 0.2 3.6 0.2 5.4v3.6c0 1.8-0.1 3.6-0.2 5.4v0.2h0.2c0.7-0.1 1.3-0.1 2 0h0.2v-0.2c-0.1-1.8-0.2-3.6-0.2-5.4v-3.6c0-1.8 0.1-3.6 0.2-5.4v-0.2h-0.2c-0.7 0.1-1.3 0.1-2 0h-0.2zm-44.4 0h-0.2c-1.2 0.1-2.5 0.1-3.7 0.1s-2.5 0-3.7-0.1h-0.2v0.2c0.1 1.8 0.2 3.6 0.2 5.4v3.6c0 1.8-0.1 3.6-0.2 5.4v0.1h0.2c1.3-0.1 2.5-0.1 3.8-0.1s2.5 0 3.8 0.1h0.2v-0.2c0-0.2-0.1-0.4-0.1-0.6s0-0.4 0.1-0.6v-0.2h-0.2c-1.8 0.2-3.7 0.3-5.5 0.3v-5.9c1.1 0 3.6 0 5 0.2h0.2v-0.2c0-0.2-0.1-0.4-0.1-0.6s0-0.4 0.1-0.6v-0.2h-0.2c-1.2 0.1-2.6 0.2-4.9 0.2v-2.6c0-1 0.1-1.7 0.1-2.5 2.6 0 3.6 0.2 5.4 0.3h0.2v-0.2c-0.1-0.4-0.1-0.8 0-1.2l-0.3-0.1zm77.2 0v0.2c0.1 1.8 0.2 3.6 0.2 5.4v3.6c0 1.8-0.1 3.6-0.2 5.4v0.2h0.2c0.3-0.1 0.7-0.1 1-0.1s0.7 0 1 0.1h0.2v-0.2c-0.1-1.8-0.2-3.6-0.2-5.4v-1.4h0.6c2 2.2 3.7 4.5 5.4 6.9l0.1 0.1h0.1c0.4-0.1 0.8-0.1 1.2-0.1s0.8 0 1.2 0.1l0.4 0.1-0.2-0.3c-1.2-1.3-4.4-5.5-5.6-6.9 1.6-0.3 4.2-1.4 4.2-4.1 0.1-1.1-0.4-2.1-1.4-2.7-1-0.5-2-0.8-3.1-0.7-0.8 0-1.6 0.1-2.4 0.1s-1.6 0-2.4-0.1l-0.3-0.2zm-104.9 0h-0.2c-1.8 0.1-3.6 0.1-5.4 0.1s-3.6 0-5.4-0.1h-0.2l0.1 0.2c0.1 0.2 0.1 0.4 0.1 0.6s0 0.4-0.1 0.6l-0.1 0.2h0.2c1.4-0.2 2.9-0.2 4.3-0.2 0 1.4 0.1 2.8 0.1 4.2v3.6c0 1.8-0.1 3.6-0.2 5.4v0.2h0.2c0.3-0.1 0.7-0.1 1-0.1s0.7 0 1 0.1h0.2v-0.2c-0.1-1.8-0.2-3.6-0.2-5.4v-3.6c0-1.4 0-2.8 0.1-4.2 1.4 0 2.9 0.1 4.3 0.2h0.2l-0.1-0.2c-0.1-0.2-0.1-0.4-0.1-0.6s0-0.4 0.1-0.6l0.1-0.2zm93.6 0v0.2c0.1 1.8 0.2 3.6 0.2 5.4v3.6c0 1.8-0.1 3.6-0.2 5.4v0.1h0.2c1.3-0.1 2.5-0.1 3.8-0.1s2.5 0 3.8 0.1h0.2v-0.2c0-0.2-0.1-0.4-0.1-0.6s0-0.4 0.1-0.6v-0.2h-0.2c-1.8 0.2-3.7 0.3-5.5 0.3v-5.9c1.1 0 3.6 0 4.9 0.2h0.2v-1.6h-0.2c-1.2 0.1-2.6 0.2-4.9 0.2v-2.6c0-1 0-1.7 0.1-2.5 2.6 0 3.6 0.2 5.4 0.3h0.2v-0.2c-0.1-0.4-0.1-0.8 0-1.2v-0.2h-0.2c-1.2 0.1-2.5 0.1-3.7 0.1s-2.5 0-3.7-0.1l-0.4 0.1zm52.5 0h-0.2c-1.8 0.1-3.6 0.1-5.4 0.1s-3.6 0-5.4-0.1h-0.2l0.1 0.2c0.1 0.2 0.1 0.4 0.1 0.6s0 0.4-0.1 0.6l-0.1 0.2h0.2c1.4-0.2 2.9-0.2 4.3-0.2 0 1.4 0.1 2.8 0.1 4.2v3.6c0 1.8-0.1 3.6-0.2 5.4v0.2h0.2c0.7-0.1 1.3-0.1 2 0h0.2v-0.2c-0.1-1.8-0.2-3.6-0.2-5.4v-3.6c0-1.4 0-2.8 0.1-4.2 1.4 0 2.9 0.1 4.3 0.2h0.2l-0.1-0.2c-0.1-0.2-0.1-0.4-0.1-0.6s0-0.4 0.1-0.6l0.1-0.2zm-68.7 0.1c2 4.8 4.6 11 5.8 14.5 0.2-0.1 0.4-0.1 0.7-0.1 0.2 0 0.5 0 0.7 0.1 1.8-4.8 3.8-9.6 6-14.4-0.5 0.1-1 0.1-1.5 0-0.9 2.7-3.2 9-4.8 12.4-1.8-4.2-3.5-8.7-4.8-12.4-0.7 0.1-1.4 0.1-2.1-0.1zm31.7 0.9c1.4 0 3.1 0.5 3.1 2.6 0 2.4-2.2 3-3.9 3.1-0.4 0-0.8 0-1.3-0.1v-1.1c0-1.5 0.1-2.9 0.1-4.4 0.5 0 1.1-0.1 2-0.1zm-120.1 17.9v0.4h170.2v-0.4h-170.2zm27.7 4.8c-2.3 5.9-7.2 16.7-10.2 23.1 0.5-0.1 1-0.2 1.4-0.2 0.5 0 0.9 0.1 1.4 0.2 0.8-3 1.8-5.8 3.1-8.6h8.3c1.3 2.8 2.5 5.7 3.3 8.7 0.7-0.1 1.4-0.2 2.1-0.2s1.3 0.1 2 0.2c-0.1-0.1-7.4-16.2-9.9-23.1-0.2 0.1-0.5 0.1-0.7 0.1-0.2-0.1-0.5-0.1-0.8-0.2zm79.3 0c-2.3 5.9-7.2 16.7-10.2 23.1 0.5-0.1 1-0.2 1.4-0.2 0.5 0 0.9 0.1 1.4 0.2 0.8-3 1.8-5.9 3.1-8.6h8.3c1.3 2.8 2.5 5.7 3.3 8.6 0.7-0.1 1.4-0.2 2.1-0.2s1.3 0.1 1.9 0.2c-0.1-0.1-7.4-16.2-9.9-23.1-0.2 0.1-0.5 0.1-0.7 0.1-0.1 0-0.4-0.1-0.7-0.1zm-64.7 0.2c0.2 3.5 0.3 4.8 0.3 9.7 0 7.6-0.2 9.9-0.4 13.2 1.9-0.1 2.6-0.1 3.5-0.1s4.9 0.1 5.2 0.1c6.6 0 12.5-3.7 12.5-12.1 0.2-3.2-1.2-6.3-3.6-8.3-3.1-2.4-6.2-2.4-12.1-2.4-1.8 0-3.6 0-5.4-0.1zm90.3 0c0.2 3.5 0.3 4.8 0.3 9.7 0 7.6-0.2 9.9-0.4 13.2 1.9-0.1 2.6-0.1 3.5-0.1s4.9 0.1 5.2 0.1c6.6 0 12.5-3.7 12.5-12.1 0.2-3.2-1.2-6.3-3.6-8.3-3.1-2.4-6.2-2.4-12.1-2.4-1.8 0-3.6 0-5.4-0.1zm-49.1 0c0.1 1.4 0.3 6.3 0.3 10.8 0 4.3 0 7.8-0.3 12 1.8-0.1 2.6-0.2 5.5-0.2 3.6 0 5 0.1 7.1 0.2-0.1-0.4-0.1-0.7-0.1-1.1s0-0.7 0.1-1.1c-2 0.3-4 0.4-6 0.4-0.8 0-1.5 0-3.1-0.1 0-10.3 0-12.5 0.3-21-0.7 0.1-1.4 0.2-2.1 0.2-0.6 0-1.2 0-1.7-0.1zm39.1 0c0.2 6 0.2 6.3 0.2 11.1 0 6.5-0.1 8.2-0.3 11.8 0.6-0.1 1.2-0.2 1.7-0.2 0.7 0 1.3 0.1 2 0.2-0.1-2.5-0.2-5.1-0.2-11.1 0-3.9 0.1-7.9 0.3-11.8-0.6 0.1-1.3 0.2-1.9 0.2-0.7 0-1.3 0-1.8-0.2zm-55.9 0c0.2 3.2 0.3 7.7 0.3 11 0 7.2-0.2 9.3-0.4 11.8 2.5-0.1 5.1-0.2 7.6-0.2 1.5 0 3.1 0.1 4.6 0.2-0.1-0.3-0.1-0.7-0.1-1.1s0-0.8 0.1-1.1c-2.9 0.3-5.8 0.4-8.7 0.4 0-0.9-0.1-3.4-0.1-5.1 0-1.4 0-2.9 0.1-4.3 0.8 0 1.8-0.1 2.7-0.1 1.7 0 3.4 0.1 5.1 0.3 0-0.4-0.1-0.7-0.1-1 0-0.4 0.1-0.8 0.1-1.1-2.6 0.2-5.2 0.3-7.8 0.2v-4.3c0-1.9 0-2.5 0.1-3.8 1.4-0.1 2-0.1 3.2-0.1 1.8 0 3.5 0.1 5.2 0.4-0.1-0.3-0.1-0.7-0.1-1 0-0.4 0-0.8 0.1-1.2-1.7 0.2-3.3 0.2-5 0.2-2.3 0-4.6 0-6.9-0.2v0.1zm91.6 0c0.2 3.2 0.3 7.7 0.3 11 0 7.2-0.2 9.3-0.4 11.8 2.5-0.1 5.1-0.2 7.7-0.2 1.5 0 3.1 0 4.6 0.2-0.1-0.3-0.1-0.7-0.1-1.1s0.1-0.8 0.1-1.1c-2.9 0.3-5.8 0.4-8.7 0.4 0-0.9-0.1-3.4-0.1-5.1 0-1.4 0-2.9 0.1-4.3 0.8 0 1.8-0.1 2.7-0.1 1.7 0 3.4 0.1 5.1 0.3 0-0.4-0.1-0.7-0.1-1 0-0.4 0-0.8 0.1-1.1-2.6 0.2-5.2 0.3-7.8 0.2v-4.3c0-1.9 0-2.5 0.1-3.8 1.4-0.1 2-0.1 3.2-0.1 1.8 0 3.5 0.1 5.2 0.4-0.1-0.3-0.1-0.7-0.1-1 0-0.4 0.1-0.8 0.1-1.2-1.7 0.2-3.3 0.2-5 0.2-2.3 0.2-4.6 0.2-7-0.1zm-140.6 1.5c-1.4 0-2.7 0.7-3.5 1.8-1.2 1.5-2 3.3-2.4 5.2h-1.8c-0.3 0.2-0.3 0.5-0.2 0.8h1.8c-1 3.5-1.8 7.3-2.8 10.7-0.5 1.7-1 1.8-1.4 1.8-0.6-0.1-1.2-0.4-1.6-0.9-0.1-0.2-0.3-0.2-0.5-0.1-0.3 0.2-0.5 0.6-0.5 1 0 0.3 0.4 1.1 1.6 1.1 1-0.1 1.9-0.5 2.6-1.2 0.8-1 1.4-2.2 1.7-3.5 0.7-2.4 1.3-4.5 1.9-6.9 0.3-0.9 0.4-1.6 0.6-2h2.7c0.3-0.2 0.4-0.5 0.2-0.8h-2.7c0.4-1.8 1.1-3.5 2-5.1 0.3-0.6 0.9-1 1.6-1.2 0.5 0 1.2 0.4 1.2 1.6 0 0.1 0.1 0.4 0.3 0.4 0.4 0 0.9-0.7 0.9-1.2-0.1-0.8-0.8-1.5-1.7-1.5zm31 0c2.6 0 5.4 0 7.8 1.8 2.8 2.1 3.3 5.4 3.3 7.9 0 2.6-0.6 6.4-3.7 8.6-2.2 1.6-5.4 1.6-6.8 1.6-1.2 0-2.4 0-3.5-0.2-0.1-3.3-0.1-4-0.1-10 0-3 0-6.4 0.2-9.4 0.9-0.2 1.9-0.3 2.8-0.3zm90.4 0c2.6 0 5.4 0 7.8 1.8 2.8 2.1 3.3 5.4 3.3 7.9 0 2.6-0.6 6.4-3.7 8.6-2.2 1.6-5.4 1.6-6.8 1.6-1.2 0-2.4 0-3.5-0.2-0.1-3.3-0.1-4-0.1-10 0-3 0-6.4 0.2-9.4 0.8-0.2 1.8-0.3 2.8-0.3zm-111.6 2.8 3.6 8.2h-7l3.4-8.2zm79.4 0 3.6 8.2h-7l3.4-8.2zm-101.1 3.9c-1.1 0-2.2 0.6-3 1.4-1.3 1.3-2.1 3-2.4 4.9-0.1 1.9 0.8 2.9 2.2 2.9 1.2 0 2.3-0.6 3.1-1.5 1.3-1.3 2.1-3.1 2.3-4.9 0.1-1.7-0.7-2.8-2.2-2.8zm-0.2 0.6c0.8 0 0.9 0.8 0.9 1.4-0.3 1.9-1 3.7-2 5.3-0.7 0.9-1.2 1.1-1.7 1.1s-0.9-0.6-0.9-1.4c0.3-1.9 1-3.8 2.1-5.4 0.7-0.8 1.2-0.9 1.6-1z" fill="#1a1a1a" fill-rule="nonzero"/>
                                    
                                
                            </g>
                        
                    
                
                
                    <path d="m159.2 104c-15.2-6.6-23-18.5-23.1-35.4h46.2c0 16.9-7.8 28.8-23.1 35.4" fill="#fff" fill-rule="nonzero"/>
                
                
                    <path d="m173.1 72.7h-1.4v-1.8h-2v-1.8l-0.9 0.3c-1.5 0.6-3.1 0.9-4.7 0.8-2.9 0-4.3 0.7-4.9 1.2-0.6-0.5-1.9-1.2-4.8-1.2-1.6 0.1-3.2-0.2-4.8-0.8l-0.9-0.3v1.8h-2v1.8h-1.9v18.9h12.8c0 0.9 0.7 1.6 1.5 1.6s1.6-0.7 1.6-1.5l0.2-0.1h12.7v-18.9h-0.5" fill-rule="nonzero"/>
                
                
                    <path d="m182.4 47.3v20.2h-46.3v-20.2h46.3" fill="#005a9c" fill-rule="nonzero"/>
                
                
                    <path d="m184.6 45.1h-50.8v23.2c0 18.2 8.4 31 25 38l0.4 0.2 0.4-0.2c16.6-7 24.9-19.8 24.9-38l0.1-23.2zm-2.2 2.2v20.2h-46.3v-20.2h46.3zm-23.2 56.7c-15.2-6.6-23-18.5-23.1-35.4h46.2c0 16.9-7.8 28.8-23.1 35.4" fill-rule="nonzero"/>
                
                
                    <path d="m190 93.5c-5.9 1.3-10.8 3.5-13.9 6.2v0.1h-0.1l2.2 4.8c-4.3 2.1-10.3 3.7-18.3 3.7h-0.3c-8.1 0-14.2-1.6-18.4-3.7l2-4.6 0.1-0.2c-3-2.7-7.9-4.9-13.9-6.2v7.6c2.8 0.9 4.7 1.7 6.2 3.1l-2.1 4.2-0.3 0.5c5 4.5 15 7.6 26.3 7.6h0.3c11.4 0 21.3-3.2 26.3-7.6l-2.4-4.8c1.6-1.4 3.4-2.1 6.2-3.1l0.1-7.6" fill="#ed1c2e" fill-rule="nonzero"/>
                
                
                    <path d="m181.2 105.6-0.7 0.4 0.3 0.5c0.2 0.3 0.5 0.8 0.9 1.4l-1.8-1.6-0.8 0.4 1.9 3.2 0.7-0.4-0.3-0.5c-0.3-0.5-0.6-1-0.9-1.4l1.8 1.7 0.8-0.4-1.9-3.3zm-43 0.4c-0.4 0-0.8 0.2-1 0.6-0.1 0.2-0.2 0.4-0.1 0.7s0.2 0.6 0.3 0.8c0.1 0.3 0.3 0.5 0.1 0.7-0.1 0.2-0.2 0.2-0.4 0.2h-0.1c-0.2-0.1-0.2-0.3 0-0.6v-0.1l-0.7-0.4c0 0.1-0.1 0.1-0.1 0.2-0.3 0.4-0.2 1.1 0.2 1.4 0.1 0.1 0.2 0.1 0.2 0.1 0.5 0.3 1.1 0.2 1.4-0.3 0.1-0.1 0.1-0.2 0.1-0.3 0.1-0.2 0.2-0.4 0.2-0.6-0.1-0.3-0.2-0.6-0.3-0.8-0.2-0.3-0.3-0.5-0.2-0.8 0.1-0.1 0.2-0.2 0.4-0.2 0.2 0.1 0.2 0.3 0 0.6l0.7 0.4v-0.1c0.3-0.5 0.1-1.1-0.3-1.4l-0.1-0.1c-0.1 0-0.2-0.1-0.3 0zm2.2 1.1-0.7 1.8c-0.2 0.4-0.3 0.8-0.4 1.3 0.1 0.4 0.4 0.7 0.7 0.8 0.4 0.2 0.8 0.2 1.1-0.1 0.2-0.2 0.4-0.5 0.5-0.8 0-0.1 0.1-0.2 0.1-0.3l0.8-1.9-0.8-0.3-0.9 2.1c-0.2 0.4-0.3 0.7-0.6 0.6s-0.2-0.4 0-0.8l0.9-2.2-0.7-0.2zm38.1 0.1-1.8 0.8 1.4 3.4 1.9-0.8-0.3-0.7-1 0.4-0.3-0.7 1-0.4-0.3-0.7-1 0.4-0.3-0.6 1-0.4-0.3-0.7zm-35 1.1-1.1 3.5 1 0.3c0.3 0.1 0.7 0.1 1 0 0.3-0.2 0.5-0.4 0.6-0.7s0.1-0.8-0.2-1c0.3-0.1 0.5-0.3 0.6-0.6s0-0.6-0.2-0.9c-0.2-0.2-0.5-0.3-0.8-0.4l-0.9-0.2zm32.2 0-1.1 0.3 0.1 1.6c0 0.1 0 0.3 0.1 0.9-0.2-0.5-0.3-0.7-0.4-0.8l-0.8-1.4-1.2 0.3 1.1 3.5 0.8-0.2-0.9-2.7 1.4 2.6 0.6-0.2-0.2-2.9 0.7 2.8 0.8-0.2-1-3.6zm-31.6 0.8c0.4 0.1 0.5 0.3 0.4 0.5s-0.3 0.4-0.6 0.3l0.2-0.8zm27.4 0.3-0.8 0.2 0.5 2.2v0.1c0.1 0.5 0.1 0.7-0.1 0.8s-0.3-0.2-0.5-0.7l-0.4-2.3-0.8 0.2 0.4 2c0.1 0.5 0.2 0.9 0.4 1.3 0.3 0.3 0.6 0.4 1 0.2 0.4 0 0.8-0.3 0.9-0.7 0.1-0.3 0.1-0.6 0-0.9l-0.1-0.3-0.5-2.1zm-22.3 0.3c-0.3 0-0.6 0.1-0.8 0.3-0.3 0.4-0.4 0.9-0.5 1.4s-0.2 1-0.1 1.5c0.2 0.4 0.5 0.6 0.9 0.7 0.8 0.1 1.3-0.2 1.4-1.1v-0.2l-0.8-0.2v0.2c-0.1 0.4-0.2 0.6-0.5 0.6s-0.3-0.4-0.1-1.3v-0.1c0.1-0.8 0.2-1.1 0.6-1.1s0.3 0.3 0.2 0.7l0.8 0.2c0.2-0.9-0.2-1.4-0.9-1.5l-0.2-0.1zm2.5 0.5-0.4 3.7 0.9 0.1 0.2-1.5h0.2c0.3 0 0.4 0.2 0.3 0.6v0.9l1 0.1c-0.2-0.2-0.1-0.5-0.1-1s0.1-0.7-0.3-0.9c0.3-0.1 0.6-0.5 0.6-0.8 0.1-0.3 0-0.6-0.2-0.8-0.3-0.2-0.6-0.3-1-0.3l-1.2-0.1zm15.7 0-0.9 0.1 0.5 3.6 1.9-0.2-0.1-0.7-1 0.1-0.4-2.9zm-23.7 0.3c0.4 0.1 0.6 0.3 0.5 0.6s-0.3 0.4-0.7 0.3h-0.1l0.3-0.9zm11.3 0-0.1 2c-0.1 0.4 0 0.9 0.1 1.3 0.4 0.6 1.3 0.7 1.8 0.2 0.1 0 0.1-0.1 0.2-0.1 0.1-0.3 0.2-0.6 0.2-0.9v-0.3l0.1-2.1h-0.9l-0.1 2.3c0 0.5 0 0.7-0.3 0.7s-0.3-0.3-0.3-0.8l0.1-2.3h-0.8zm8.8 0-2 0.1 0.2 3.7 2-0.1v-0.8l-1.2 0.1v-0.8l1.1-0.1v-0.8l-1 0.1v-0.7h1.1l-0.2-0.7zm-4.3 0.1c-0.4 0-0.8 0.1-1 0.5-0.3 0.9-0.3 2 0 2.9 0.2 0.3 0.6 0.5 1 0.5 0.8 0 1.2-0.4 1.2-1.3v-0.2h-0.8v0.2c0 0.5-0.1 0.7-0.4 0.7s-0.4-0.4-0.3-1.2v-0.1c0-0.8 0-1.2 0.4-1.2s0.4 0.2 0.4 0.7h0.8c-0.1-1.1-0.5-1.5-1.3-1.5zm-7 0.2h0.1c0.3 0 0.5 0.2 0.4 0.5s-0.2 0.4-0.6 0.4h-0.1l0.2-0.9z" fill="#fff" fill-rule="nonzero"/>
                
                
                    <path d="m158.8 88.9c-0.8-1-2.1-1.6-3.4-1.7l-1.2 0.1c-1.2 0.1-3 0.3-3.8 0.3h-1.7v-15.7h-1v16.8h2.7c0.8 0 2.5-0.2 3.7-0.3l1.3-0.1c1.1-0.2 2.3 0.1 3.4 0.6" fill="#fff" fill-rule="nonzero"/>
                
                
                    <path d="m169.7 71.9v15.8h-1.7c-0.8 0-2.6-0.2-3.8-0.3l-1.2-0.1c-1.3 0-2.6 0.6-3.4 1.7 1-0.6 2.3-0.9 3.5-0.7l1.3 0.1c1.2 0.1 2.9 0.3 3.7 0.3h2.7v-16.8h-1.1" fill="#fff" fill-rule="nonzero"/>
                
                
                    <path d="m155.4 86.2-1.3 0.1c-1.2 0.1-2.9 0.3-3.7 0.3h-0.7v-16c1.5 0.5 3.1 0.8 4.6 0.7 3.7 0 4.4 1.1 4.4 1.2l0.1 0.1v14.8c-1-0.8-2.2-1.2-3.4-1.2" fill="#fff" fill-rule="nonzero"/>
                
                
                    <path d="m168.7 86.6h-0.7c-0.8 0-2.5-0.2-3.7-0.3l-1.3-0.1c-1.3 0-2.5 0.4-3.5 1.1v-14.7l0.1-0.1s0.7-1.2 4.4-1.2c1.6 0.1 3.1-0.2 4.6-0.7l0.1 16" fill="#fff" fill-rule="nonzero"/>
                
                
                    <path d="m150.8 72.1v1.8c1.2 0.4 2.5 0.5 3.8 0.5 1.1 0 2.1 0.1 3.1 0.4v-0.5c-1-0.3-2.1-0.4-3.1-0.4s-2-0.1-2.9-0.3v-1.3c-0.4 0-0.6-0.1-0.9-0.2zm10.9 0.5c-0.2 0-0.3 0.1-0.5 0.1-0.1 0-0.3 0.1-0.4 0.1v2c1-0.3 2-0.4 3.1-0.4 1.3 0 2.6-0.1 3.8-0.5v-0.5c-1.2 0.4-2.5 0.5-3.8 0.5-0.7 0-1.5 0.1-2.2 0.2v-1.5zm-10.9 3v0.5c1.3 0.2 2.6 0.3 3.9 0.3h0.9c0.7 0 1.4 0.1 2.1 0.4v-0.5c-0.7-0.2-1.4-0.3-2.1-0.3h-1c-1.3-0.1-2.6-0.2-3.8-0.4zm16.9 0c-1.3 0.3-2.6 0.4-3.8 0.3h-1c-0.7 0-1.3 0.1-2 0.3v0.5c0.7-0.2 1.4-0.3 2.1-0.4h0.9c1.3 0 2.6-0.1 3.9-0.3l-0.1-0.4zm-16.9 2.1v0.5c1.3 0.1 2.6 0.2 3.9 0.1h0.8c0.7 0 1.5 0.1 2.1 0.4v-0.5c-0.7-0.2-1.4-0.3-2.1-0.4h-0.9c-1.2 0.1-2.5 0.1-3.8-0.1zm16.9 0.1c-1.3 0.1-2.6 0.2-3.9 0.1h-0.9c-0.7 0-1.4 0.1-2.1 0.3v0.5c0.7-0.2 1.4-0.4 2.1-0.4h0.8c1.3 0.1 2.6 0 3.9-0.1v-0.4h0.1zm-12.2 2.1h-0.8c-1.3 0.1-2.7 0.1-4 0v0.5c1.3 0.1 2.7 0.1 4 0h0.7c0.7 0 1.5 0.1 2.2 0.4v-0.6c-0.7-0.2-1.4-0.3-2.1-0.3zm7.4 0.1c-0.7 0-1.4 0.1-2.1 0.4v0.5c0.7-0.3 1.4-0.4 2.1-0.4h0.7c1.3 0.1 2.7 0.1 4 0v-0.5c-1.3 0.1-2.7 0.1-4 0h-0.7zm-7.4 2h-1.1c-1.1 0.1-2.7 0.2-3.6 0.2v0.5c1 0 2.5-0.1 3.6-0.2h1c0.8 0 1.5 0.1 2.2 0.4v-0.6c-0.7-0.2-1.4-0.3-2.1-0.3zm7.5 0c-0.7 0-1.5 0.1-2.2 0.4v0.6c0.7-0.3 1.4-0.4 2.2-0.4h1c1.1 0.1 2.7 0.2 3.6 0.2v-0.5c-0.9 0-2.4-0.1-3.6-0.2h-0.4l-0.6-0.1zm-7.6 2-1.2 0.1c-1 0.1-2.5 0.3-3.4 0.3v0.6c0.9 0 2.4-0.2 3.4-0.3l1.2-0.1c0.8 0 1.5 0.1 2.2 0.4v-0.6c-0.7-0.2-1.4-0.3-2.2-0.4zm7.6 0.1c-0.8 0-1.5 0.1-2.2 0.4v0.5c0.7-0.3 1.5-0.4 2.2-0.4l1.2 0.1c1.1 0.1 2.6 0.3 3.5 0.3v-0.5c-0.9 0-2.4-0.2-3.4-0.3l-1.3-0.1z" fill-rule="nonzero"/>
                
                
                    <path d="m155.4 89.3-1.2 0.1c-1.2 0.1-3 0.3-3.8 0.3h-3.7v-16h-0.9v16.9h4.6c0.8 0 2.6-0.2 3.7-0.3l1.3-0.1c0.9-0.1 1.8-0.1 2.7 0v-0.1c-0.8-0.5-1.8-0.9-2.7-0.8" fill="#fff" fill-rule="nonzero"/>
                
                
                    <path d="m171.7 73.7v16h-3.7c-0.8 0-2.6-0.2-3.8-0.3l-1.2-0.1c-1 0-2 0.3-2.8 1 0.9-0.2 1.9-0.3 2.8-0.1l1.3 0.1c1.2 0.1 2.9 0.3 3.7 0.3h4.6v-16.9h-0.9" fill="#fff" fill-rule="nonzero"/>
                
                
                    <path d="m159.4 48.5-1 1.4-1.8-0.1 0.4 1.6-1.2 1.3 1.6 0.7 0.3 1.7 1.6-0.8 1.5 0.8 0.3-1.7 1.7-0.7-1.2-1.3 0.5-1.7-1.8 0.1-0.9-1.3zm9.6 4.4-1 1.4-1.8-0.1 0.5 1.6-1.2 1.3 1.6 0.7 0.3 1.7 1.6-0.8 1.5 0.8 0.3-1.7 1.7-0.7-1.2-1.3 0.5-1.7-1.8 0.1-1-1.3zm-18.1 4-1.3 1.3h-1.8v1.8l-1.3 1.3 1.3 1.3v1.8h1.8l1.3 1.3 1.3-1.3h1.9v-1.8l1.2-1.2-1.2-1.2v-1.8h-1.9l-1.3-1.5zm8.5 2.6-0.8 1.2-1.4 0.4 0.9 1.1v1.4l1.4-0.5 1.4 0.5v-1.4l0.9-1.1-1.4-0.4-1-1.2zm6 1.7-0.7 1.2h-1.7l0.8 1.4-0.8 1.4h1.7l0.7 1.2 0.7-1.2h1.7l-0.8-1.4 0.8-1.4h-1.7l-0.7-1.2z" fill="#fff" fill-rule="nonzero"/>
                
                
                    <path d="m174.6 86.2v-6.9h0.4v-2.1h-0.4v-2.4h-1v16.9h-12.7l-0.2 0.1c-0.1 0.9-0.8 1.5-1.7 1.4-0.8-0.1-1.4-0.7-1.4-1.5h-12.8v-16.9h-1v2.4h-0.4v2.1h0.4v6.9h-0.4v2.1h0.4v4.2h12.8c0.6 1.4 2.3 2.1 3.7 1.4 0.6-0.3 1.2-0.8 1.4-1.4h12.8v-4.2h0.4v-2.1h-0.3" fill="#ed1c2e" fill-rule="nonzero"/>
                
                
                    <path d="m136.1 68.6c0.1 16.9 7.9 28.8 23.1 35.4v-9.8c-1.1 0-2.1-0.7-2.6-1.7h-12.9v-4.2h-0.4v-2.1h0.4v-6.9h-0.4v-2.1h0.4v-2.4h1v-2h1.9v-1.9h2v-1.8l0.9 0.3c1.5 0.6 3.1 0.9 4.8 0.8 2.9 0 4.3 0.7 4.8 1.2h0.1v-2.9h-23.1" fill="#b38808" fill-rule="nonzero"/>
                
            
        
    </g>
</svg>
