<?xml version="1.0" encoding="UTF-8"?>
<svg id="Layer_2" data-name="Layer 2" xmlns="http://www.w3.org/2000/svg" viewBox="0 0 223.5 73.76">
  <defs>
    <style>
      .cls-1 {
        fill: #fab314;
      }

      .cls-2 {
        fill: #f8e86c;
      }

      .cls-3 {
        fill: #fad121;
      }

      .cls-4 {
        fill: #1f252e;
      }
    </style>
  </defs>
  <g id="ARTWORK">
    <g>
      <g>
        <polygon class="cls-4" points="38.32 44.26 38.33 44.26 38.32 44.26 38.32 44.26"/>
        <polygon class="cls-4" points="25.55 22.13 0 36.88 25.55 51.63 25.55 22.13"/>
        <g>
          <polygon class="cls-4" points="51.09 36.88 51.09 51.63 63.87 44.26 51.09 36.88"/>
          <polygon class="cls-4" points="51.09 51.63 51.09 66.38 63.87 73.76 76.64 66.38 51.09 51.63"/>
        </g>
        <polygon class="cls-2" points="25.55 7.38 38.32 14.76 51.09 7.38 38.31 0 25.55 7.38"/>
        <polygon class="cls-3" points="38.32 14.76 38.32 14.76 25.55 7.38 25.55 22.13 25.55 22.13 25.55 51.63 38.32 59.01 38.32 44.26 38.32 14.76"/>
        <g>
          <polygon class="cls-1" points="38.32 14.76 38.33 29.51 51.1 22.13 51.1 7.38 38.32 14.76"/>
          <polygon class="cls-1" points="51.1 66.38 51.1 51.63 51.09 36.88 38.32 44.26 38.32 59.01 51.1 66.38"/>
        </g>
      </g>
      <g>
        <path class="cls-4" d="m93.19,12.7c-.9,0-1.63-.29-2.2-.86-.57-.57-.86-1.26-.86-2.05s.29-1.51.86-2.07c.57-.56,1.31-.84,2.2-.84.85,0,1.56.28,2.15.84s.88,1.25.88,2.07-.29,1.48-.88,2.05c-.58.57-1.3.86-2.15.86Zm-2.43,2.39h4.78v18.68h-4.78V15.09Z"/>
        <path class="cls-4" d="m98.19,15.09h4.33l.34,1.91c.6-.67,1.33-1.2,2.19-1.59.86-.39,1.79-.58,2.78-.58,1.47,0,2.72.31,3.75.93,1.03.62,1.83,1.53,2.39,2.71.56,1.18.84,2.65.84,4.39v10.91h-4.82v-10.27c0-1.44-.29-2.53-.86-3.25-.57-.72-1.43-1.08-2.58-1.08s-2.06.37-2.67,1.1c-.61.74-.92,1.83-.92,3.27v10.24h-4.78V15.09Z"/>
        <path class="cls-4" d="m121.06,27.68c.15.62.4,1.1.77,1.42.36.32.77.55,1.23.69s.93.21,1.4.21c.87,0,1.56-.17,2.05-.5.5-.34.75-.77.75-1.29,0-.45-.17-.8-.52-1.06s-.79-.47-1.33-.62c-.54-.15-1.1-.29-1.7-.41-.67-.17-1.39-.37-2.15-.58-.76-.21-1.48-.52-2.15-.92-.67-.4-1.23-.92-1.66-1.55-.44-.63-.65-1.44-.65-2.41,0-1.17.31-2.19.93-3.04.62-.86,1.5-1.54,2.63-2.04,1.13-.5,2.45-.75,3.94-.75,1.77,0,3.26.37,4.48,1.12,1.22.75,2.1,1.82,2.65,3.21l-4.18,1.2c-.15-.35-.37-.63-.67-.86-.3-.22-.65-.39-1.06-.49s-.83-.15-1.25-.15c-.72,0-1.32.14-1.79.43-.47.29-.71.68-.71,1.18,0,.3.09.54.26.73.17.19.42.34.73.47.31.12.67.24,1.08.34.41.1.87.21,1.36.34.77.2,1.55.43,2.33.69.78.26,1.51.59,2.17.99s1.19.93,1.59,1.61c.4.67.62,1.52.67,2.54,0,1.1-.31,2.09-.93,2.97-.62.88-1.52,1.59-2.69,2.11-1.17.52-2.59.79-4.26.79-1.94,0-3.59-.41-4.95-1.23-1.36-.82-2.25-2.1-2.67-3.85l4.3-1.27Z"/>
        <path class="cls-4" d="m137.16,12.7c-.9,0-1.63-.29-2.2-.86-.57-.57-.86-1.26-.86-2.05s.29-1.51.86-2.07c.57-.56,1.31-.84,2.2-.84.85,0,1.56.28,2.15.84s.88,1.25.88,2.07-.29,1.48-.88,2.05c-.58.57-1.3.86-2.15.86Zm-2.43,2.39h4.78v18.68h-4.78V15.09Z"/>
        <path class="cls-4" d="m156.13,15.09h4.33v15.91c0,2.12-.52,3.94-1.57,5.47-1.05,1.53-2.56,2.71-4.54,3.53-1.98.82-4.35,1.23-7.12,1.23l-.75-4.04c3.01-.05,5.3-.58,6.86-1.61,1.56-1.02,2.33-2.49,2.33-4.41v-.08l.63-.22c-.6.87-1.42,1.61-2.47,2.22s-2.29.92-3.74.92c-1.64,0-3.09-.4-4.33-1.2s-2.22-1.91-2.93-3.34c-.71-1.43-1.07-3.12-1.07-5.06s.36-3.64,1.07-5.08c.71-1.44,1.69-2.56,2.93-3.34,1.25-.79,2.69-1.18,4.33-1.18.85,0,1.64.12,2.37.35.73.24,1.38.55,1.94.93.56.39,1.03.82,1.4,1.29l.3-2.32Zm-9.23,9.34c0,1.57.4,2.83,1.21,3.79.81.96,1.89,1.44,3.23,1.44.77,0,1.48-.21,2.13-.62.65-.41,1.18-1.01,1.59-1.81.41-.8.62-1.73.62-2.8s-.21-2.07-.62-2.84c-.41-.77-.95-1.36-1.61-1.77-.66-.41-1.36-.62-2.11-.62-1.34,0-2.42.48-3.23,1.44s-1.21,2.22-1.21,3.79Z"/>
        <path class="cls-4" d="m163.45,6.88h4.78v10.05c.57-.62,1.29-1.13,2.15-1.51.86-.39,1.82-.58,2.89-.58,1.42,0,2.65.31,3.7.93,1.05.62,1.86,1.53,2.45,2.71.58,1.18.88,2.65.88,4.39v10.91h-5.04v-10.27c0-1.44-.29-2.53-.86-3.25-.57-.72-1.43-1.08-2.58-1.08s-2.06.39-2.67,1.18-.92,1.9-.92,3.34v10.09h-4.78V6.88Z"/>
        <path class="cls-4" d="m184.34,15.09v-5.23h4.82v5.23h4.15v4.22h-4.15v7.58c0,.97.21,1.66.63,2.05.42.4.95.61,1.59.64.63.02,1.28-.01,1.92-.11v4.11c-1.15.25-2.26.32-3.34.22-1.08-.1-2.05-.39-2.9-.88-.85-.49-1.51-1.23-2-2.22-.49-1-.73-2.27-.73-3.81v-7.58h-2.65v-4.22h2.65Z"/>
        <path class="cls-4" d="m92.44,45.04c0-1.37.22-2.53.67-3.47s1.16-1.64,2.15-2.07c.98-.44,2.3-.59,3.94-.47v2.5c-1.49-.12-2.53.12-3.1.73-.57.61-.86,1.54-.86,2.78v2.2h4.11v2.62h-4.11v16.06h-2.8v-16.06h-2.61v-2.62h2.61v-2.2Z"/>
        <path class="cls-4" d="m112.58,65.92l-.22-3.36c-.52,1.15-1.29,2.04-2.32,2.67-1.02.64-2.32.95-3.89.95-1.34,0-2.49-.21-3.44-.64-.95-.42-1.67-1.03-2.19-1.81s-.77-1.71-.77-2.78c0-1.57.58-2.86,1.76-3.87,1.17-1.01,2.86-1.62,5.08-1.85l5.75-.64v-1.49c0-1.05-.39-1.89-1.16-2.52-.77-.63-1.82-.95-3.14-.95s-2.37.3-3.23.9-1.45,1.46-1.77,2.58l-2.54-.9c.5-1.64,1.41-2.93,2.75-3.85,1.33-.92,2.96-1.38,4.88-1.38,2.22,0,3.94.57,5.17,1.7,1.23,1.13,1.85,2.67,1.85,4.61v12.63h-2.58Zm-.22-8.93l-5.79.67c-1.25.15-2.19.49-2.84,1.03-.65.54-.97,1.24-.97,2.11s.32,1.57.95,2.09c.63.52,1.55.79,2.75.79,1.37,0,2.49-.27,3.36-.82.87-.55,1.51-1.29,1.92-2.22s.62-1.95.62-3.04v-.6Z"/>
        <path class="cls-4" d="m126.73,66.18c-1.82,0-3.41-.4-4.78-1.2-1.37-.8-2.43-1.91-3.19-3.34-.76-1.43-1.14-3.09-1.14-4.99s.38-3.6,1.14-5.06,1.82-2.59,3.19-3.4c1.37-.81,2.96-1.21,4.78-1.21,1.92,0,3.6.44,5.04,1.33,1.44.88,2.49,2.11,3.14,3.68l-2.58.9c-.37-1-1.05-1.79-2.04-2.37-.98-.58-2.12-.88-3.42-.88s-2.37.29-3.31.86c-.93.57-1.66,1.38-2.17,2.43s-.77,2.28-.77,3.7c0,2.09.56,3.77,1.68,5.02,1.12,1.26,2.61,1.89,4.48,1.89,1.27,0,2.4-.29,3.4-.86,1-.57,1.73-1.34,2.2-2.32l2.54.9c-.67,1.54-1.73,2.75-3.17,3.62-1.45.87-3.13,1.31-5.04,1.31Z"/>
        <path class="cls-4" d="m139.17,47.24v-5.23h2.8v5.23h4.97v2.62h-4.97v10.05c0,1.15.24,1.98.73,2.5.49.52,1.11.83,1.87.93s1.55.1,2.37,0v2.43c-.97.22-1.92.29-2.86.19-.93-.1-1.77-.38-2.5-.84-.74-.46-1.32-1.11-1.76-1.96-.44-.85-.65-1.93-.65-3.25v-10.05h-2.8v-2.62h2.8Z"/>
        <path class="cls-4" d="m157.18,66.18c-1.77,0-3.35-.39-4.74-1.16-1.39-.77-2.49-1.87-3.29-3.31-.8-1.43-1.2-3.13-1.2-5.1s.4-3.71,1.21-5.16c.81-1.44,1.92-2.55,3.32-3.33,1.41-.77,3-1.16,4.76-1.16s3.36.39,4.76,1.16c1.41.77,2.52,1.88,3.33,3.31.81,1.43,1.21,3.13,1.21,5.1s-.41,3.71-1.23,5.16c-.82,1.45-1.94,2.55-3.36,3.33-1.42.77-3.01,1.16-4.78,1.16Zm-.04-2.65c1.1,0,2.13-.24,3.1-.73s1.76-1.25,2.37-2.28c.61-1.03.92-2.35.92-3.94s-.3-2.94-.9-3.96-1.38-1.77-2.33-2.26c-.96-.49-1.99-.73-3.08-.73s-2.12.24-3.06.73c-.95.49-1.71,1.25-2.3,2.28s-.88,2.35-.88,3.94.29,2.94.86,3.96c.57,1.02,1.33,1.77,2.26,2.26.93.49,1.95.73,3.04.73Z"/>
        <path class="cls-4" d="m168.95,47.24h2.58l.15,2.73c.5-.67,1.1-1.25,1.81-1.72.71-.47,1.49-.8,2.35-.99.86-.19,1.77-.19,2.75-.02v2.8c-1.05-.2-1.99-.2-2.82,0-.83.2-1.55.57-2.15,1.12s-1.06,1.24-1.38,2.07c-.32.83-.49,1.8-.49,2.9v9.79h-2.8v-18.68Z"/>
        <path class="cls-4" d="m195.28,47.24h2.91l-10.68,26.15h-2.69l3.18-7.73-7.55-18.42h3.06l5.98,15.09,5.79-15.09Z"/>
        <path class="cls-4" d="m196.86,66.09c-.51,0-.94-.18-1.28-.53-.34-.35-.52-.79-.52-1.3s.17-.94.52-1.3c.34-.36.77-.53,1.28-.53s.91.18,1.27.53.53.79.53,1.3-.18.94-.53,1.3-.78.53-1.27.53Z"/>
        <path class="cls-4" d="m214.16,65.92l-.22-3.36c-.52,1.15-1.29,2.04-2.32,2.67-1.02.64-2.32.95-3.89.95-1.34,0-2.49-.21-3.44-.64-.95-.42-1.67-1.03-2.19-1.81s-.77-1.71-.77-2.78c0-1.57.58-2.86,1.76-3.87,1.17-1.01,2.86-1.62,5.08-1.85l5.75-.64v-1.49c0-1.05-.39-1.89-1.16-2.52-.77-.63-1.82-.95-3.14-.95s-2.37.3-3.23.9-1.45,1.46-1.77,2.58l-2.54-.9c.5-1.64,1.41-2.93,2.75-3.85,1.33-.92,2.96-1.38,4.88-1.38,2.22,0,3.94.57,5.17,1.7,1.23,1.13,1.85,2.67,1.85,4.61v12.63h-2.58Zm-.22-8.93l-5.79.67c-1.25.15-2.19.49-2.84,1.03-.65.54-.97,1.24-.97,2.11s.32,1.57.95,2.09c.63.52,1.55.79,2.75.79,1.37,0,2.49-.27,3.36-.82.87-.55,1.51-1.29,1.92-2.22s.62-1.95.62-3.04v-.6Z"/>
        <path class="cls-4" d="m221.55,43.51c-.57,0-1.05-.19-1.42-.56s-.56-.83-.56-1.38.19-1.05.56-1.42c.37-.37.85-.56,1.42-.56.52,0,.98.19,1.36.56.39.37.58.85.58,1.42s-.19,1.01-.58,1.38c-.39.37-.84.56-1.36.56Zm-1.42,3.74h2.76v18.68h-2.76v-18.68Z"/>
      </g>
    </g>
  </g>
</svg>