<svg id="Logo" xmlns="http://www.w3.org/2000/svg" viewBox="0 0 1558 1322">
  <title>MGL_Vert_RGB_K</title>
  <path id="Macquarie" d="M1186.52,1042.13c0-21.56-13.14-38.76-43.9-38.76h-71v133.19h19.15V1080.9h41.92l37.17,55.66h22L1154.09,1080c24.56-4.26,32.43-22.38,32.43-37.84m-95.75,21.23v-42.14h51.29c16.31,0,25.3,7.43,25.3,20.91,0,13.69-9,21.23-25.3,21.23Zm-202.72-60H907.2v77c0,35.58-21.77,58.91-59,58.91s-59-23.33-59-58.91v-77h19.15v74.94c0,27.36,14.14,42.43,39.82,42.43s39.82-15.07,39.82-42.43Zm486,115.34v17.85H1268.25V1003.37h104.54v17.85H1287.4v37.62h76.5v17.67h-76.5v42.2Zm-157.5-115.34h19.15v133.19H1216.5Zm-807.67,0-61.19,133.19H367l15.71-34.76h67.89l15.71,34.76h19.39l-61.19-133.19Zm-18.33,81.27,26.18-57.94,26.19,57.94Zm587.27-81.27-61.18,133.19H936l15.71-34.76h67.88l15.71,34.76h19.4l-61.19-133.19Zm-18.32,81.27,26.18-57.94,26.18,57.94Zm-657.71-81.27h29v133.19H312.54V1023.08l-46.92,113.48H249.08l-46.92-113.48v113.48H184V1003.37h29l44.39,108.2Zm257.33,15.21c-26.47,0-50.23,19.7-50.23,51.38s23.76,51.38,50.23,51.38c16.66,0,30.47-7.87,41-23.41l14.68,11.22a66,66,0,0,1-55.73,30.15c-39.32,0-69.74-30-69.74-69.34s30.42-69.33,69.74-69.33a66,66,0,0,1,55.73,30.15L600.12,1042c-10.58-15.53-24.39-23.41-41-23.41M764.56,1070c0-38.24-29.92-69.3-68.24-69.3-38,0-68.25,30.71-68.25,69.3,0,38.24,29.92,69.31,68.25,69.31a67.51,67.51,0,0,0,44.27-16.35l15,13.64H782l-29.54-26.85A70.11,70.11,0,0,0,764.56,1070m-26.38,26.82-17.48-15.89-12.55,12.55,18.64,16.94a47.44,47.44,0,0,1-30.47,10.93c-27.39,0-48.84-22.55-48.84-51.35s21.45-51.35,48.84-51.35,48.84,22.56,48.84,51.35a53.81,53.81,0,0,1-7,26.82M778.63,182.7c-206.11,0-367.51,150.62-367.51,343.74s161.4,343.73,367.51,343.73,367.51-150.61,367.51-343.73S984.74,182.7,778.63,182.7M556,763.62c1.59,1.66,1.24,3.35.3,4.21s-2.88.76-4.75-.76c-60.68-49.49-115.33-131-115.33-240.63S490.9,335.3,551.58,285.8c1.87-1.52,3.75-1.67,4.75-.75s1.29,2.54-.3,4.21c-44.89,47-88.68,125.24-88.68,237.18S511.14,716.59,556,763.62M669.71,674c-.78,1.17-2.71,1.46-4.84.18C613.52,643.27,573,593.46,573,526.44s40.55-116.83,91.9-147.76c2.13-1.27,4.06-1,4.84.18s.5,2.5-.85,3.65c-33.54,28.59-64.79,78.15-64.79,143.93s31.25,115.34,64.79,143.92c1.35,1.16,1.6,2.53.85,3.65m108.92,12.6c-79.7,0-149.43-69.14-149.43-160.17s69.73-160.18,149.43-160.18S928.06,435.4,928.06,526.44,858.33,686.61,778.63,686.61m113.76-12.42c-2.13,1.28-4.06,1-4.84-.18s-.5-2.49.85-3.65c33.54-28.58,64.79-78.15,64.79-143.92S921.94,411.1,888.4,382.51c-1.35-1.15-1.6-2.52-.85-3.65s2.71-1.45,4.84-.18c51.35,30.93,91.9,80.73,91.9,147.76s-40.55,116.83-91.9,147.75m113.29,92.88c-1.87,1.52-3.74,1.67-4.75.76s-1.29-2.55.3-4.21c44.89-47,88.68-125.24,88.68-237.18s-43.79-190.15-88.68-237.18c-1.59-1.67-1.23-3.36-.3-4.21s2.88-.77,4.75.75c60.68,49.5,115.33,131,115.33,240.64s-54.65,191.14-115.33,240.63"/>
</svg>
