<?xml version="1.0" encoding="UTF-8"?>
<svg clip-rule="evenodd" fill-rule="evenodd" stroke-linejoin="round" stroke-miterlimit="2" version="1.1" viewBox="0 0 375 119" xml:space="preserve" xmlns="http://www.w3.org/2000/svg">
    <g fill-rule="nonzero">
        <path d="m106.64 70.37c-0.201-0.65-0.542-1.247-1-1.75-0.48-0.486-1.07-0.85-1.72-1.06-0.826-0.266-1.692-0.391-2.56-0.37h-13.87c-0.557 0.015-1.107-0.135-1.58-0.43-0.449-0.324-0.771-0.794-0.91-1.33-0.108-0.38-0.158-0.775-0.15-1.17v-1.26c-0.025-0.714 0.186-1.417 0.6-2 0.242-0.307 0.564-0.543 0.93-0.68 0.38-0.13 0.779-0.194 1.18-0.19h18.44v-3.7h-19.54c-0.905-0.019-1.808 0.113-2.67 0.39-0.662 0.207-1.26 0.579-1.74 1.08-0.966 1.07-1.469 2.48-1.4 3.92v2.77c-0.016 0.833 0.102 1.664 0.35 2.46 0.199 0.654 0.54 1.255 1 1.76 0.489 0.466 1.082 0.809 1.73 1 0.83 0.266 1.699 0.391 2.57 0.37h13.83c0.559-0.016 1.11 0.137 1.58 0.44 0.457 0.317 0.79 0.784 0.94 1.32 0.111 0.38 0.165 0.774 0.16 1.17v1.56c0.02 0.715-0.195 1.418-0.61 2-0.241 0.306-0.563 0.539-0.93 0.67-0.38 0.13-0.779 0.194-1.18 0.19h-19.37v3.7h20.52c0.906 0.016 1.808-0.119 2.67-0.4 0.658-0.209 1.25-0.584 1.72-1.09 0.924-1.049 1.414-2.412 1.37-3.81v-3c0.021-0.867-0.1-1.732-0.36-2.56z"/>
        <path d="m145.41 76.68c-0.054 0.225-0.172 0.43-0.34 0.59-0.189 0.173-0.434 0.272-0.69 0.28h-0.22c-0.256-9e-3 -0.5-0.109-0.69-0.28-0.159-0.149-0.273-0.34-0.33-0.55l-6.14-18.72c-0.127-0.509-0.398-0.971-0.78-1.33-0.421-0.262-0.916-0.381-1.41-0.34h-3.65c-0.434-0.02-0.864 0.095-1.23 0.33-0.393 0.349-0.663 0.816-0.77 1.33l-6 18.67c-0.05 0.216-0.166 0.411-0.33 0.56-0.189 0.173-0.434 0.272-0.69 0.28h-0.14c-0.26-5e-3 -0.508-0.105-0.7-0.28-0.178-0.164-0.298-0.382-0.34-0.62l-5.96-20.23h-4.27l6.75 22.63c0.129 0.449 0.293 0.887 0.49 1.31 0.112 0.243 0.268 0.463 0.46 0.65 0.152 0.127 0.329 0.219 0.52 0.27 0.297 0.079 0.603 0.119 0.91 0.12h4.2c0.242-2e-3 0.481-0.042 0.71-0.12 0.166-0.064 0.316-0.163 0.44-0.29 0.472-0.588 0.813-1.27 1-2l5.79-17.94c0.043-0.23 0.159-0.44 0.33-0.6 0.191-0.174 0.442-0.267 0.7-0.26h0.15c0.5-5e-3 0.93 0.365 1 0.86l5.82 18c0.194 0.728 0.534 1.408 1 2 0.129 0.128 0.282 0.23 0.45 0.3 0.225 0.079 0.462 0.119 0.7 0.12h4.32c0.43 0.026 0.854-0.118 1.18-0.4 0.179-0.191 0.325-0.41 0.43-0.65 0.206-0.421 0.373-0.859 0.5-1.31l7-22.62h-4.38l-5.79 20.24z"/>
        <path d="m187.79 58.45c-0.814-0.753-1.805-1.289-2.88-1.56-1.498-0.37-3.037-0.545-4.58-0.52h-11.39c-1.536-0.026-3.069 0.148-4.56 0.52-1.071 0.273-2.058 0.81-2.87 1.56-0.754 0.767-1.302 1.713-1.59 2.75-0.386 1.43-0.564 2.909-0.53 4.39v6.51c-0.033 1.488 0.145 2.973 0.53 4.41 0.281 1.048 0.832 2.003 1.6 2.77 0.806 0.751 1.791 1.285 2.86 1.55 1.491 0.372 3.024 0.546 4.56 0.52h11.39c1.543 0.025 3.082-0.15 4.58-0.52 1.078-0.257 2.071-0.792 2.88-1.55 0.769-0.76 1.318-1.714 1.59-2.76 0.377-1.442 0.552-2.93 0.52-4.42v-6.51c0.032-1.484-0.143-2.965-0.52-4.4-0.28-1.037-0.829-1.982-1.59-2.74zm-2.06 13.24c0.023 0.893-0.058 1.786-0.24 2.66-0.146 0.745-0.491 1.437-1 2-0.51 0.501-1.152 0.847-1.85 1-0.838 0.199-1.699 0.29-2.56 0.27h-11c-0.867 0.036-1.734-0.065-2.57-0.3-0.7-0.148-1.343-0.495-1.85-1-0.5-0.546-0.845-1.216-1-1.94-0.189-0.87-0.276-1.76-0.26-2.65v-5.73c-0.017-0.897 0.07-1.793 0.26-2.67 0.146-0.745 0.492-1.436 1-2 0.516-0.492 1.155-0.838 1.85-1 0.843-0.194 1.706-0.284 2.57-0.27h11c0.864-0.014 1.727 0.076 2.57 0.27 0.696 0.158 1.336 0.504 1.85 1 0.509 0.563 0.855 1.255 1 2 0.182 0.878 0.263 1.774 0.24 2.67l-0.01 5.69z"/>
        <path d="m255.07 58.72c-0.909-0.833-2.008-1.434-3.2-1.75-1.6-0.429-3.253-0.631-4.91-0.6h-17.26c-0.096-8e-3 -0.193 0.01-0.28 0.05v0.06c-0.016 0.083-0.016 0.167 0 0.25v24.27c-0.021 0.092-0.021 0.188 0 0.28h0.06c0.079 0.018 0.161 0.018 0.24 0h17.28c1.657 0.029 3.31-0.177 4.91-0.61 1.193-0.319 2.291-0.923 3.2-1.76 0.843-0.831 1.459-1.864 1.79-3 0.431-1.477 0.633-3.012 0.6-4.55v-5.09c0.033-1.538-0.169-3.073-0.6-4.55-0.345-1.139-0.975-2.172-1.83-3zm-1.72 12.21c0.021 1.009-0.083 2.017-0.31 3-0.36 1.661-1.653 2.97-3.31 3.35-0.955 0.237-1.937 0.344-2.92 0.32h-12.09c-0.241 0.01-0.481-0.049-0.69-0.17-0.229-0.145-0.402-0.364-0.49-0.62-0.046-0.149-0.066-0.304-0.06-0.46v-15c-7e-3 -0.246 0.048-0.491 0.16-0.71 0.131-0.246 0.348-0.435 0.61-0.53 0.15-0.058 0.309-0.088 0.47-0.09h12.09c0.984-0.019 1.967 0.095 2.92 0.34 0.801 0.199 1.536 0.606 2.13 1.18 0.571 0.625 0.964 1.392 1.14 2.22 0.228 0.983 0.332 1.991 0.31 3l0.04 4.17z"/>
        <path d="m289.2 56.43h-16.32c-1.536-0.026-3.069 0.148-4.56 0.52-1.071 0.273-2.058 0.81-2.87 1.56-0.758 0.766-1.308 1.713-1.6 2.75-0.391 1.429-0.569 2.909-0.53 4.39v15.68h4.13v-10.69h21.55v-3.09h-21.58v-1.55c-0.014-0.897 0.077-1.794 0.27-2.67 0.143-0.746 0.489-1.438 1-2 0.514-0.496 1.154-0.842 1.85-1 0.842-0.194 1.706-0.285 2.57-0.27h16.09v-3.63z"/>
        <path d="m298.43 56.37h-3.98l-0.09 0.01v24.95l0.09 0.02h3.98l0.04-0.02-0.01-0.06v-24.85l0.01-0.04-0.04-0.01z"/>
        <path d="m330.41 70.37c-0.2-0.65-0.542-1.247-1-1.75-0.485-0.484-1.078-0.847-1.73-1.06-0.826-0.267-1.692-0.392-2.56-0.37h-13.86c-0.557 0.015-1.107-0.135-1.58-0.43-0.46-0.319-0.793-0.79-0.94-1.33-0.108-0.38-0.158-0.775-0.15-1.17v-1.26c-0.025-0.714 0.186-1.417 0.6-2 0.237-0.313 0.56-0.549 0.93-0.68 0.378-0.138 0.778-0.206 1.18-0.2h18.53v-3.74h-19.6c-0.905-0.019-1.808 0.113-2.67 0.39-0.653 0.208-1.242 0.579-1.71 1.08-0.957 1.074-1.45 2.484-1.37 3.92v2.77c-0.017 0.853 0.101 1.704 0.35 2.52 0.199 0.654 0.54 1.255 1 1.76 0.483 0.468 1.074 0.811 1.72 1 0.83 0.267 1.699 0.392 2.57 0.37h13.88c0.559-0.016 1.11 0.137 1.58 0.44 0.459 0.333 0.786 0.819 0.92 1.37 0.108 0.38 0.158 0.775 0.15 1.17v1.56c0.023 0.714-0.188 1.417-0.6 2-0.243 0.304-0.564 0.536-0.93 0.67-0.379 0.131-0.779 0.195-1.18 0.19h-19.42v3.7h20.48c0.906 0.016 1.808-0.119 2.67-0.4 0.658-0.209 1.25-0.584 1.72-1.09 0.957-1.078 1.453-2.49 1.38-3.93v-3c0.015-0.847-0.107-1.691-0.36-2.5z"/>
        <path d="m363.52 56.38-0.08-0.01h-3.99l-0.07 0.01-0.02 0.04v10.6h-18.74v-10.65h-4.03l-0.08 0.01v0.04l-0.01 24.85 0.01 0.06 0.08 0.02h3.98l0.07-0.02 0.02-0.06v-10.86h18.7v10.86l0.02 0.06 0.07 0.02h3.99l0.08-0.02v-24.95z"/>
        <path d="m220.7 71.58c0.577-0.329 1.072-0.784 1.45-1.33 0.845-1.416 1.246-3.054 1.15-4.7v-2.16c0.019-1.063-0.126-2.122-0.43-3.14-0.233-0.798-0.644-1.533-1.2-2.15-0.589-0.594-1.318-1.031-2.12-1.27-1.109-0.33-2.263-0.485-3.42-0.46h-19.8c-0.096-6e-3 -0.192 0.011-0.28 0.05v0.06c-0.018 0.082-0.018 0.168 0 0.25v24.6h4.09v-19.33c1.826 0.987 3.578 2.106 5.24 3.35 3.708 2.782 6.989 6.09 9.74 9.82 1.439 1.965 2.736 4.03 3.88 6.18h4.19c-1.217-2.472-2.614-4.852-4.18-7.12-0.433-0.613-0.863-1.203-1.29-1.77l0.67-0.1c0.812-0.112 1.596-0.377 2.31-0.78zm-3.88-1.91c-0.372 0.106-0.754 0.173-1.14 0.2-1.203-1.399-2.478-2.734-3.82-4-2.334-2.202-4.879-4.169-7.6-5.87h10.74c0.619-0.013 1.236 0.068 1.83 0.24 0.522 0.156 0.997 0.442 1.38 0.83 0.349 0.393 0.608 0.857 0.76 1.36 0.166 0.558 0.247 1.138 0.24 1.72v1.59c7e-3 0.582-0.074 1.162-0.24 1.72-0.148 0.505-0.408 0.97-0.76 1.36-0.383 0.398-0.861 0.691-1.39 0.85z"/>
        <path d="m84 103c-0.643 0.018-1.286-0.029-1.92-0.14-0.37-0.067-0.716-0.233-1-0.48-0.3-0.266-0.515-0.613-0.62-1-0.147-0.527-0.215-1.073-0.2-1.62v-2.41c-0.015-0.59 0.052-1.179 0.2-1.75 0.107-0.386 0.322-0.733 0.62-1 0.285-0.245 0.63-0.411 1-0.48 0.634-0.103 1.278-0.144 1.92-0.12h2.7c0.979-0.093 1.964 0.094 2.84 0.54 0.566 0.5 0.845 1.252 0.74 2 6e-3 0.093 6e-3 0.187 0 0.28v0.19h-1v-0.13c0.049-0.522-0.109-1.043-0.44-1.45-0.454-0.318-1.008-0.463-1.56-0.41h-3.68c-0.399-0.014-0.797 0.036-1.18 0.15-0.267 0.088-0.498 0.26-0.66 0.49-0.116 0.177-0.197 0.373-0.24 0.58-0.054 0.374-0.077 0.752-0.07 1.13v2.34c-7e-3 0.378 0.016 0.756 0.07 1.13 0.041 0.207 0.123 0.404 0.24 0.58 0.162 0.23 0.393 0.402 0.66 0.49 0.383 0.114 0.781 0.164 1.18 0.15h3.71c0.583 0.063 1.17-0.078 1.66-0.4 0.342-0.405 0.501-0.934 0.44-1.46v-0.25h1v0.44c0.013 0.446-0.044 0.892-0.17 1.32-0.093 0.314-0.273 0.595-0.52 0.81-0.285 0.236-0.632 0.385-1 0.43-0.661 0.106-1.331 0.149-2 0.13l-2.72-0.08z"/>
        <path d="m84 103v-0.13c-0.636 0.02-1.273-0.023-1.9-0.13-0.342-0.071-0.662-0.226-0.93-0.45-0.277-0.251-0.481-0.572-0.59-0.93-0.134-0.519-0.195-1.054-0.18-1.59v-2.42c-0.017-0.575 0.043-1.151 0.18-1.71 0.093-0.384 0.299-0.732 0.59-1 0.287-0.238 0.632-0.393 1-0.45 0.605-0.092 1.218-0.126 1.83-0.1h2.7c0.953-0.095 1.913 0.082 2.77 0.51 0.512 0.47 0.766 1.16 0.68 1.85v0.34h-0.74c0.083-0.548-0.066-1.106-0.41-1.54-0.474-0.342-1.058-0.499-1.64-0.44h-3.76c-0.412-0.018-0.825 0.033-1.22 0.15-0.291 0.1-0.543 0.289-0.72 0.54-0.126 0.191-0.215 0.405-0.26 0.63-0.058 0.38-0.082 0.765-0.07 1.15v2.34c-0.011 0.388 0.012 0.776 0.07 1.16 0.043 0.222 0.132 0.433 0.26 0.62 0.171 0.257 0.425 0.448 0.72 0.54 0.395 0.121 0.807 0.176 1.22 0.16h3.71c0.613 0.061 1.229-0.095 1.74-0.44 0.375-0.424 0.553-0.988 0.49-1.55v-0.11h0.85v-0.13h-0.12c-4e-3 0.08-4e-3 0.16 0 0.24v0.2c0.015 0.432-0.035 0.863-0.15 1.28-0.093 0.292-0.262 0.555-0.49 0.76-0.265 0.208-0.578 0.345-0.91 0.4-0.662 0.098-1.331 0.138-2 0.12h-2.72v0.25h2.69c0.669 0.015 1.338-0.026 2-0.12 0.367-0.067 0.71-0.226 1-0.46 0.266-0.231 0.46-0.533 0.56-0.87 0.124-0.442 0.182-0.901 0.17-1.36 4e-3 -0.07 4e-3 -0.14 0-0.21v-0.35h-1.13v0.37c0.058 0.489-0.086 0.981-0.4 1.36-0.466 0.308-1.026 0.439-1.58 0.37h-3.71c-0.385 0.014-0.77-0.033-1.14-0.14-0.242-0.078-0.453-0.233-0.6-0.44-0.106-0.165-0.181-0.348-0.22-0.54-0.05-0.364-0.07-0.732-0.06-1.1v-2.35c-0.01-0.368 0.01-0.736 0.06-1.1 0.041-0.192 0.115-0.374 0.22-0.54 0.147-0.207 0.358-0.362 0.6-0.44 0.37-0.107 0.755-0.154 1.14-0.14h3.72c0.52-0.055 1.042 0.08 1.47 0.38 0.315 0.375 0.46 0.864 0.4 1.35v0.21h1.22v-0.59c0.087-0.774-0.208-1.543-0.79-2.06-0.899-0.453-1.908-0.644-2.91-0.55h-2.71c-0.643-0.02-1.287 0.027-1.92 0.14-0.391 0.071-0.756 0.244-1.06 0.5-0.321 0.288-0.551 0.663-0.66 1.08-0.152 0.584-0.219 1.187-0.2 1.79v2.41c-0.018 0.56 0.049 1.12 0.2 1.66 0.123 0.388 0.352 0.734 0.66 1 0.286 0.248 0.63 0.42 1 0.5 0.66 0.118 1.33 0.165 2 0.14l-0.02-0.02z"/>
        <path d="m107.82 103c-0.67 0.014-1.339-0.033-2-0.14-0.39-0.071-0.757-0.236-1.07-0.48-0.316-0.261-0.549-0.609-0.67-1-0.147-0.527-0.215-1.073-0.2-1.62v-2.41c-0.015-0.59 0.052-1.179 0.2-1.75 0.121-0.389 0.35-0.736 0.66-1 0.318-0.242 0.688-0.406 1.08-0.48 0.661-0.107 1.33-0.154 2-0.14h2.86c0.67-0.014 1.339 0.033 2 0.14 0.392 0.074 0.762 0.238 1.08 0.48 0.313 0.259 0.54 0.608 0.65 1 0.156 0.543 0.226 1.106 0.21 1.67v2.43c0.017 0.564-0.054 1.128-0.21 1.67-0.11 0.392-0.337 0.741-0.65 1-0.308 0.246-0.672 0.411-1.06 0.48-0.661 0.107-1.33 0.154-2 0.14l-2.88 0.01zm3.36-8.06h-3.88c-0.432-0.015-0.863 0.035-1.28 0.15-0.281 0.083-0.526 0.255-0.7 0.49-0.13 0.174-0.219 0.376-0.26 0.59-0.063 0.373-0.09 0.752-0.08 1.13v2.32c-0.011 0.378 0.016 0.757 0.08 1.13 0.039 0.214 0.128 0.417 0.26 0.59 0.174 0.235 0.419 0.407 0.7 0.49 0.417 0.115 0.848 0.165 1.28 0.15h3.88c0.432 0.016 0.864-0.035 1.28-0.15 0.282-0.085 0.531-0.256 0.71-0.49 0.116-0.169 0.197-0.36 0.24-0.56 0.06-0.33 0.087-0.665 0.08-1v-2.62c7e-3 -0.335-0.02-0.67-0.08-1-0.045-0.2-0.126-0.39-0.24-0.56-0.179-0.234-0.428-0.405-0.71-0.49-0.415-0.126-0.847-0.186-1.28-0.18v0.01z"/>
        <path d="m107.82 103v-0.13c-0.669 0.019-1.339-0.024-2-0.13-0.365-0.072-0.708-0.23-1-0.46-0.298-0.241-0.517-0.564-0.63-0.93-0.148-0.513-0.216-1.046-0.2-1.58v-2.42c-0.017-0.577 0.05-1.153 0.2-1.71 0.094-0.391 0.311-0.742 0.62-1 0.292-0.229 0.635-0.384 1-0.45 0.661-0.11 1.33-0.156 2-0.14h2.86c0.67-0.015 1.339 0.032 2 0.14 0.364 0.07 0.706 0.225 1 0.45 0.289 0.249 0.5 0.575 0.61 0.94 0.148 0.53 0.215 1.08 0.2 1.63v2.49c0.016 0.55-0.052 1.1-0.2 1.63-0.11 0.365-0.321 0.691-0.61 0.94-0.293 0.228-0.636 0.386-1 0.46-0.661 0.105-1.331 0.149-2 0.13h-2.85v0.25h2.85c0.693 0.021 1.386-0.026 2.07-0.14 0.409-0.071 0.794-0.243 1.12-0.5 0.332-0.276 0.572-0.645 0.69-1.06 0.155-0.556 0.226-1.133 0.21-1.71v-2.45c0.015-0.577-0.056-1.153-0.21-1.71-0.118-0.415-0.358-0.784-0.69-1.06-0.331-0.255-0.719-0.426-1.13-0.5-0.681-0.112-1.37-0.162-2.06-0.15h-2.86c-0.67-0.017-1.339 0.03-2 0.14-0.414 0.074-0.805 0.246-1.14 0.5-0.335 0.283-0.578 0.659-0.7 1.08-0.152 0.584-0.219 1.187-0.2 1.79v2.41c-0.016 0.561 0.055 1.121 0.21 1.66 0.138 0.391 0.38 0.737 0.7 1 0.331 0.255 0.719 0.427 1.13 0.5 0.681 0.113 1.37 0.164 2.06 0.15l-0.05-0.06zm3.36-7.94v-0.24h-3.88c-0.44-7e-3 -0.879 0.053-1.3 0.18-0.307 0.089-0.575 0.279-0.76 0.54-0.141 0.186-0.236 0.401-0.28 0.63-0.067 0.383-0.094 0.772-0.08 1.16v2.32c-0.014 0.388 0.013 0.777 0.08 1.16 0.043 0.232 0.139 0.451 0.28 0.64 0.189 0.255 0.456 0.441 0.76 0.53 0.429 0.123 0.874 0.177 1.32 0.16h3.88c0.446 0.017 0.891-0.037 1.32-0.16 0.304-0.089 0.571-0.275 0.76-0.53 0.134-0.185 0.226-0.396 0.27-0.62 0.063-0.329 0.09-0.665 0.08-1v-2.67c0.01-0.335-0.017-0.671-0.08-1-0.042-0.221-0.135-0.43-0.27-0.61-0.185-0.261-0.453-0.451-0.76-0.54-0.429-0.119-0.875-0.169-1.32-0.15v0.25c0.418-0.015 0.836 0.032 1.24 0.14 0.259 0.078 0.486 0.235 0.65 0.45 0.109 0.152 0.184 0.326 0.22 0.51 0.063 0.329 0.09 0.665 0.08 1v2.59c0.01 0.335-0.017 0.671-0.08 1-0.038 0.186-0.113 0.363-0.22 0.52-0.167 0.209-0.394 0.363-0.65 0.44-0.404 0.108-0.822 0.155-1.24 0.14h-3.9c-0.418 0.015-0.836-0.033-1.24-0.14-0.256-0.077-0.483-0.231-0.65-0.44-0.114-0.161-0.193-0.346-0.23-0.54-0.064-0.366-0.091-0.738-0.08-1.11v-2.38c-0.011-0.368 0.016-0.737 0.08-1.1 0.035-0.195 0.114-0.38 0.23-0.54 0.164-0.215 0.391-0.372 0.65-0.45 0.404-0.107 0.822-0.155 1.24-0.14h3.88z"/>
        <path d="m129.39 102.88h-1.04v-8.81h1.54l5.15 7.66 5.16-7.66h1.59v8.81h-1.04v-7.76l-5.28 7.76h-0.8l-5.28-7.76v7.76z"/>
        <path d="m129.39 102.88v-0.12h-0.92v-8.57h1.36l5.21 7.76 5.23-7.76h1.39v8.57h-0.79v-8.04l-5.46 8.03h-0.68l-5.46-8.03v8.16h0.12v-0.12 0.12h0.12v-7.36l5.09 7.49h0.93l5.1-7.49v7.49h1.28v-9.07h-1.77l-5.1 7.57-5.08-7.57h-1.73v9.07h1.28v-0.13h-0.12z"/>
        <path d="m156.76 102.88h-1.07v-8.81h6c0.927-0.087 1.861 0.068 2.71 0.45 0.48 0.401 0.725 1.019 0.65 1.64v1.16c0.078 0.621-0.167 1.241-0.65 1.64-0.852 0.372-1.784 0.523-2.71 0.44h-4.89l-0.04 3.48zm0-4.47h5.24c0.53 0.05 1.064-0.05 1.54-0.29 0.297-0.32 0.434-0.758 0.37-1.19v-0.42c0.062-0.435-0.074-0.876-0.37-1.2-0.474-0.246-1.008-0.353-1.54-0.31h-5.2l-0.04 3.41z"/>
        <path d="m156.76 102.88v-0.12h-0.95v-8.57h5.84c0.902-0.082 1.811 0.066 2.64 0.43 0.446 0.379 0.672 0.959 0.6 1.54v1.16c0.074 0.578-0.152 1.156-0.6 1.53-0.829 0.365-1.738 0.513-2.64 0.43h-5v3.6h0.25v-3.35h4.77c0.952 0.091 1.911-0.071 2.78-0.47 0.511-0.425 0.777-1.079 0.71-1.74v-1.16c0.071-0.665-0.196-1.323-0.71-1.75-0.869-0.399-1.828-0.561-2.78-0.47h-6.08v9.06h1.31v-0.13l-0.14 0.01zm0-4.47v0.12h5.24c0.556 0.06 1.117-0.048 1.61-0.31 0.333-0.341 0.491-0.817 0.43-1.29v-0.42c0.063-0.476-0.096-0.956-0.43-1.3-0.495-0.258-1.055-0.365-1.61-0.31h-5.33v3.63h0.13v-0.12h0.12v-3.26h5.08c0.501-0.05 1.007 0.04 1.46 0.26 0.2 0.15 0.33 0.5 0.33 1.1v0.42c0 0.59-0.13 0.95-0.33 1.09-0.453 0.22-0.959 0.31-1.46 0.26h-5.2v0.13h-0.04z"/>
        <path d="m181.82 103c-0.626 0.017-1.253-0.03-1.87-0.14-0.37-0.067-0.716-0.233-1-0.48-0.299-0.265-0.511-0.613-0.61-1-0.143-0.528-0.207-1.074-0.19-1.62v-5.69h1.09v5.71c-0.01 0.335 0.013 0.67 0.07 1 0.04 0.194 0.118 0.377 0.23 0.54 0.152 0.231 0.377 0.404 0.64 0.49 0.376 0.113 0.768 0.164 1.16 0.15h3.53c0.396 0.014 0.791-0.036 1.17-0.15 0.261-0.089 0.486-0.261 0.64-0.49 0.112-0.163 0.19-0.346 0.23-0.54 0.052-0.331 0.075-0.665 0.07-1v-5.71h1.09v5.65c0.016 0.556-0.048 1.112-0.19 1.65-0.105 0.382-0.313 0.728-0.6 1-0.283 0.248-0.629 0.414-1 0.48-0.62 0.109-1.25 0.156-1.88 0.14l-2.58 0.01z"/>
        <path d="m181.82 103v-0.13c-0.619 0.019-1.239-0.024-1.85-0.13-0.342-0.071-0.662-0.226-0.93-0.45-0.279-0.244-0.48-0.563-0.58-0.92-0.135-0.515-0.196-1.047-0.18-1.58v-5.6h0.85v5.59c-8e-3 0.335 0.016 0.67 0.07 1 0.044 0.211 0.129 0.412 0.25 0.59l0.1-0.08-0.1 0.07c0.167 0.253 0.413 0.443 0.7 0.54 0.388 0.121 0.794 0.175 1.2 0.16h3.53c0.409 0.016 0.819-0.038 1.21-0.16 0.281-0.102 0.525-0.287 0.7-0.53 0.121-0.178 0.206-0.379 0.25-0.59 0.054-0.33 0.078-0.665 0.07-1v-5.59h0.89v5.53c0.012 0.543-0.052 1.085-0.19 1.61-0.085 0.381-0.28 0.728-0.56 1-0.262 0.227-0.579 0.382-0.92 0.45-0.611 0.106-1.231 0.149-1.85 0.13h-2.62v0.25h2.62c0.637 0.021 1.273-0.026 1.9-0.14 0.371-0.076 0.716-0.249 1-0.5 0.31-0.289 0.532-0.66 0.64-1.07 0.141-0.548 0.205-1.114 0.19-1.68v-5.83h-1.34v5.84c0.01 0.334-0.01 0.669-0.06 1-0.033 0.18-0.105 0.351-0.21 0.5-0.144 0.207-0.351 0.361-0.59 0.44-0.361 0.116-0.741 0.167-1.12 0.15h-3.53c-0.379 0.015-0.758-0.036-1.12-0.15-0.237-0.079-0.441-0.233-0.58-0.44-0.105-0.149-0.177-0.32-0.21-0.5-0.055-0.33-0.078-0.665-0.07-1v-5.84h-1.38v5.84c-0.013 0.56 0.054 1.119 0.2 1.66 0.12 0.387 0.345 0.733 0.65 1 0.286 0.248 0.63 0.42 1 0.5 0.627 0.114 1.263 0.161 1.9 0.14l0.07-0.08z"/>
        <path d="m206.47 102.88h-1.06v-7.83h-4.25v-0.98h9.56v0.98h-4.25v7.83z"/>
        <path d="m206.47 102.88v-0.12h-0.94v-7.84h-4.25v-0.73h9.32v0.73h-4.25v7.96h0.12v-0.12 0.12h0.12v-7.7h4.25v-1.24h-9.81v1.24h4.25v7.83h1.31v-0.13h-0.12z"/>
        </g><rect x="223.89" y="94.07" width="1.07" height="8.81"/><g fill-rule="nonzero">
        <path d="m224.96 102.88v-0.12h-0.95v-8.57h0.82v8.69h0.13v-0.12 0.12h0.12v-8.94h-1.31v9.07h1.31v-0.13h-0.12z"/>
        <path d="m240 102.88h-1.06v-8.81h1.68l7.75 7.81v-7.81h1.06v8.81h-1.55l-7.88-7.92v7.92z"/>
        <path d="m240 102.88v-0.12h-0.94v-8.57h1.5l7.94 7.99v-7.99h0.81v8.56h-1.38l-8.05-8.09v8.22h0.12v-0.12 0.12h0.13v-7.62l7.69 7.75h1.74v-9.07h-1.31v7.64l-7.59-7.64h-1.85v9.07h1.32v-0.13h-0.13z"/>
        <path d="m270.51 102c0.577 0.072 1.161-0.071 1.64-0.4 0.341-0.501 0.487-1.109 0.41-1.71v-0.45h-4.41v-1h5.48v1.43c0.03 0.595-0.024 1.19-0.16 1.77-0.096 0.312-0.28 0.59-0.53 0.8-0.285 0.236-0.632 0.385-1 0.43-0.661 0.106-1.331 0.15-2 0.13h-3.07c-0.64 0.017-1.28-0.03-1.91-0.14-0.367-0.082-0.71-0.25-1-0.49-0.296-0.267-0.508-0.614-0.61-1-0.147-0.527-0.215-1.073-0.2-1.62v-2.4c-0.015-0.59 0.052-1.179 0.2-1.75 0.104-0.385 0.316-0.732 0.61-1 0.287-0.242 0.631-0.408 1-0.48 0.627-0.109 1.264-0.156 1.9-0.14h3.14c0.979-0.093 1.964 0.094 2.84 0.54 0.573 0.495 0.856 1.25 0.75 2v0.47h-1v-0.13c0.049-0.522-0.109-1.043-0.44-1.45-0.458-0.319-1.015-0.464-1.57-0.41h-4.1c-0.399-0.016-0.798 0.035-1.18 0.15-0.267 0.088-0.498 0.26-0.66 0.49-0.116 0.177-0.197 0.373-0.24 0.58-0.054 0.374-0.077 0.752-0.07 1.13v2.34c-7e-3 0.378 0.016 0.756 0.07 1.13 0.041 0.207 0.123 0.404 0.24 0.58 0.162 0.23 0.393 0.402 0.66 0.49 0.383 0.114 0.781 0.164 1.18 0.15l4.03-0.04z"/>
        <path d="m270.51 102v0.13c0.611 0.067 1.226-0.089 1.73-0.44 0.364-0.525 0.52-1.166 0.44-1.8v-0.57h-4.4v-0.73h5.23v1.3c0.023 0.581-0.027 1.162-0.15 1.73-0.089 0.291-0.263 0.549-0.5 0.74-0.265 0.208-0.578 0.345-0.91 0.4-0.662 0.098-1.331 0.138-2 0.12h-3.07c-0.63 0.017-1.26-0.03-1.88-0.14-0.366-0.063-0.71-0.218-1-0.45-0.274-0.252-0.474-0.573-0.58-0.93-0.139-0.515-0.203-1.047-0.19-1.58v-2.43c-0.015-0.576 0.049-1.151 0.19-1.71 0.094-0.382 0.296-0.729 0.58-1 0.289-0.234 0.633-0.389 1-0.45 0.617-0.106 1.244-0.149 1.87-0.13h3.13c0.953-0.095 1.913 0.082 2.77 0.51 0.52 0.466 0.781 1.157 0.7 1.85v0.34h-0.74c0.063-0.558-0.111-1.117-0.48-1.54-0.478-0.343-1.065-0.5-1.65-0.44h-4.1c-0.412-0.02-0.825 0.031-1.22 0.15-0.291 0.1-0.543 0.289-0.72 0.54-0.126 0.191-0.215 0.405-0.26 0.63-0.058 0.38-0.082 0.765-0.07 1.15v2.34c-0.011 0.388 0.012 0.776 0.07 1.16 0.043 0.222 0.132 0.433 0.26 0.62 0.169 0.259 0.424 0.451 0.72 0.54 0.395 0.121 0.807 0.176 1.22 0.16h4.06v-0.26h-4.06c-0.385 0.014-0.77-0.033-1.14-0.14-0.242-0.078-0.453-0.233-0.6-0.44-0.106-0.165-0.181-0.348-0.22-0.54-0.05-0.364-0.07-0.732-0.06-1.1v-2.31c-0.01-0.368 0.01-0.736 0.06-1.1 0.041-0.192 0.115-0.374 0.22-0.54 0.147-0.207 0.358-0.362 0.6-0.44 0.37-0.107 0.755-0.154 1.14-0.14h4.1c0.523-0.056 1.049 0.079 1.48 0.38 0.315 0.375 0.46 0.864 0.4 1.35v0.21h1.22v-0.59c0.089-0.776-0.21-1.548-0.8-2.06-0.899-0.453-1.908-0.644-2.91-0.55h-3.08c-0.642 0-1.282 0.067-1.91 0.2-0.391 0.071-0.756 0.244-1.06 0.5-0.321 0.288-0.551 0.663-0.66 1.08-0.152 0.584-0.219 1.187-0.2 1.79v2.41c-0.018 0.56 0.049 1.12 0.2 1.66 0.124 0.387 0.353 0.733 0.66 1 0.3 0.274 0.665 0.466 1.06 0.56 0.637 0.114 1.284 0.161 1.93 0.14h3.07c0.669 0.014 1.338-0.026 2-0.12 0.367-0.066 0.711-0.224 1-0.46l-0.08-0.1 0.08 0.1c0.267-0.227 0.465-0.525 0.57-0.86 0.134-0.593 0.188-1.202 0.16-1.81v-1.59h-5.73v1.24h4.4v0.32c0.076 0.565-0.051 1.14-0.36 1.62-0.458 0.307-1.014 0.435-1.56 0.36l0.03 0.16z"/>
        <path d="m121 15.06c-0.792-0.031-1.506 0.494-1.71 1.26l-25.46 7.68-1 0.29c-0.06-9e-3 -0.12-9e-3 -0.18 0l-0.23 0.07c-3.783 1.03-7.637 1.779-11.53 2.24-1.89 0.22-3.81 0.39-5.78 0.5s-4.12 0.29-6.07 0.52c-3.661 0.444-7.291 1.112-10.87 2l-0.41-0.49c-5.63-6.68-13.37-10.74-19.68-13.13-3.653-1.424-7.433-2.496-11.29-3.2-0.025-2e-3 -0.05-3e-3 -0.074-3e-3 -0.549 0-1 0.452-1 1 0 0.355 0.188 0.684 0.494 0.863 1.853 0.985 3.593 2.168 5.19 3.53 1.346 1.139 2.536 2.45 3.54 3.9 1.015 1.459 1.658 3.145 1.87 4.91 0.108 1.052 0.031 2.115-0.23 3.14-0.334 1.238-0.868 2.413-1.58 3.48-1.35 2.11-3.25 4.44-5.28 7.05-2.212 2.769-4.218 5.697-6 8.76-0.249 0.439-0.128 1.002 0.28 1.3 0.423 0.264 0.982 0.174 1.3-0.21 3.042-3.552 6.598-6.63 10.55-9.13 6.623-4.332 13.914-7.545 21.58-9.51 0.49 0.66 1 1.35 1.41 2.07-8.718 2.861-16.844 7.283-23.98 13.05-6.836 5.702-12.487 12.691-16.63 20.57-4.69 8.77-8.29 19.66-10.13 33.2-0.02 0.079-0.03 0.16-0.03 0.241 0 0.492 0.364 0.915 0.85 0.989 0.027 2e-3 0.053 3e-3 0.08 3e-3 0.549 0 1-0.451 1-1v-3e-3c0.55-3.101 1.529-6.11 2.91-8.94 3.405-7.133 8.47-13.347 14.77-18.12 1.313-0.994 2.682-1.912 4.1-2.75 2.37-1.45 5.12-3 7.9-4.44 2.45-1.31 4.93-2.61 7.17-3.84 0.236 0.154 0.509 0.24 0.79 0.25 0.937 0.034 1.737-0.704 1.78-1.64 3e-3 -0.041 4e-3 -0.082 4e-3 -0.123 0-0.885-0.7-1.627-1.584-1.677-0.84-0.035-1.588 0.554-1.75 1.38-3.09 1.7-6.67 3.55-10.09 5.41-1.83 1-3.6 2-5.22 3-1.48 0.882-2.909 1.847-4.28 2.89-5.922 4.509-10.806 10.239-14.32 16.8 1.972-8.526 5.265-16.692 9.76-24.2 3.756-6.218 8.529-11.762 14.12-16.4 6.93-5.637 14.829-9.964 23.31-12.77l0.45-0.15c1.794 3.395 2.908 7.108 3.28 10.93 0.144 1.375 0.201 2.758 0.17 4.14v0.44c-0.9 0.52-1.79 1-2.7 1.57-1.813 1.058-3.551 2.241-5.2 3.54-0.447 0.35-0.821 0.785-1.1 1.28-0.235 0.426-0.417 0.879-0.54 1.35-0.213 0.928-0.36 1.871-0.44 2.82-0.202 2.099-0.519 4.186-0.95 6.25-0.751 3.389-1.799 6.705-3.13 9.91-0.179 0.438-0.024 0.947 0.37 1.21 0.401 0.232 0.913 0.157 1.23-0.18 2.566-3.001 4.931-6.168 7.08-9.48 1.897-2.875 3.547-5.906 4.93-9.06 1.138-2.543 1.903-5.238 2.27-8 1.32-0.78 2.67-1.62 4.09-2.65 3.404-2.488 6.473-5.406 9.13-8.68 2.357-2.707 5.087-5.064 8.11-7 0.224 0.134 0.479 0.21 0.74 0.22 0.937 0.034 1.737-0.704 1.78-1.64 3e-3 -0.044 5e-3 -0.088 5e-3 -0.132 0-0.884-0.702-1.623-1.585-1.668-0.854-0.037-1.61 0.577-1.75 1.42-3.271 2.078-6.219 4.625-8.75 7.56-3.184 3.95-7.015 7.331-11.33 10l-0.33 0.17c-1e-3 -1.209-0.068-2.418-0.2-3.62-0.382-3.949-1.508-7.79-3.32-11.32 2.83-0.89 5.5-1.61 7.92-2.21 3.08-0.77 5.75-1.36 7.86-1.94 4.27-1.16 8.85-2.54 12-3.5l4.89-1.48 0.76-0.23h0.1l24.7-7.49c0.259 0.198 0.574 0.31 0.9 0.32 0.935 0.039 1.737-0.695 1.78-1.63 5e-3 -0.051 7e-3 -0.102 7e-3 -0.153 0-0.892-0.706-1.638-1.597-1.687zm-59.94 44.56c-1.982 4.404-4.433 8.581-7.31 12.46-0.27 0.37-0.53 0.73-0.79 1.07 0.41-1.32 0.74-2.54 1-3.67 0.622-2.744 1.059-5.527 1.31-8.33 0.064-0.731 0.212-1.453 0.44-2.15 0.077-0.232 0.188-0.451 0.33-0.65 0.136-0.197 0.302-0.372 0.49-0.52 1.586-1.244 3.257-2.377 5-3.39l1.47-0.83c-0.43 2.067-1.081 4.082-1.94 6.01zm-26.44-19.76c-1.57 1-3 2.08-4.18 3l0.79-1c2-2.59 3.93-4.94 5.38-7.2 0.825-1.257 1.442-2.638 1.83-4.09 0.316-1.257 0.414-2.56 0.29-3.85-0.26-2.108-1.033-4.12-2.25-5.86-1.314-1.846-2.899-3.485-4.7-4.86 4.329 1.208 8.514 2.885 12.48 5 4.476 2.333 8.484 5.472 11.82 9.26-7.622 2.027-14.868 5.269-21.46 9.6zm26.09-6.54c-0.4-0.667-0.82-1.317-1.26-1.95 3.224-0.762 6.49-1.336 9.78-1.72 1.92-0.23 3.9-0.4 6-0.52l1.77-0.13c-1.8 0.49-4.11 1-6.76 1.66-2.87 0.71-6.08 1.55-9.53 2.66z" fill="url(#_Linear1)"/>
    </g>
    <defs>
        <linearGradient id="_Linear1" x2="1" gradientTransform="matrix(124.45,-66.16,66.16,124.45,-7.95,71.08)" gradientUnits="userSpaceOnUse"><stop stop-color="#fdf388" offset="0"/><stop stop-color="#fce87e" offset=".02"/><stop stop-color="#facc64" offset=".06"/><stop stop-color="#f79f3a" offset=".12"/><stop stop-color="#f58321" offset=".15"/><stop stop-color="#f58224" offset=".29"/><stop stop-color="#ef3c5a" offset=".38"/><stop stop-color="#ed206f" offset=".43"/><stop stop-color="#cd3783" offset=".47"/><stop stop-color="#b04c96" offset=".51"/><stop stop-color="#9d58a2" offset=".55"/><stop stop-color="#975da6" offset=".58"/><stop stop-color="#8868ae" offset=".59"/><stop stop-color="#6b7dbf" offset=".63"/><stop stop-color="#538fcd" offset=".67"/><stop stop-color="#409cd7" offset=".72"/><stop stop-color="#33a6de" offset=".78"/><stop stop-color="#2babe3" offset=".85"/><stop stop-color="#29ade4" offset="1"/></linearGradient>
    </defs>
</svg>
